{"glyphs":{"0":{"ha":1072,"x_min":68,"x_max":994,"o":"m 994 534 q 857 146 994 299 q 482 -11 715 -11 q 181 103 295 -11 q 68 406 68 218 q 206 793 68 640 q 581 953 349 953 q 881 838 768 953 q 994 534 994 722 m 704 612 q 586 814 704 814 q 404 616 471 814 q 353 321 353 467 q 472 121 353 121 q 654 317 588 121 q 704 612 704 465 z "},"1":{"ha":647,"x_min":61,"x_max":588,"o":"m 574 761 l 307 0 l 61 0 l 329 782 l 114 782 l 204 954 l 469 954 q 554 924 522 954 q 588 836 588 891 q 574 761 588 802 z "},"2":{"ha":996,"x_min":54,"x_max":911,"o":"m 911 722 q 725 383 911 540 q 368 197 568 251 l 832 197 l 762 0 l 54 0 l 113 193 q 424 393 264 255 q 615 688 615 559 q 513 821 615 821 l 504 821 q 507 791 507 802 q 451 675 507 722 q 326 629 398 629 q 203 675 256 629 q 147 791 147 722 q 253 944 147 905 q 492 971 324 971 q 751 942 667 971 q 911 722 911 887 z "},"3":{"ha":964,"x_min":87,"x_max":964,"o":"m 964 954 l 729 612 q 849 505 800 575 q 903 354 903 429 q 783 97 903 194 q 513 -10 682 16 q 268 -21 406 -27 q 143 28 196 -18 q 87 146 87 76 q 143 264 87 216 q 267 309 196 309 q 391 264 338 309 q 447 146 447 216 q 435 86 447 113 q 559 151 511 90 q 607 293 607 210 q 522 457 607 389 q 367 521 450 513 l 564 761 l 193 761 l 268 954 l 964 954 z "},"4":{"ha":1069,"x_min":40,"x_max":989,"o":"m 989 461 l 918 268 l 743 268 l 646 0 l 401 0 l 497 268 l 143 268 q 40 346 40 268 q 68 411 40 381 l 290 652 q 203 710 237 668 q 170 806 170 753 q 225 924 170 876 q 350 968 279 968 q 479 917 426 968 q 532 791 532 867 q 475 668 532 729 l 282 461 l 557 461 l 737 954 l 983 954 l 811 461 l 989 461 z "},"5":{"ha":949,"x_min":62,"x_max":956,"o":"m 956 954 l 873 761 l 525 761 l 465 597 l 561 597 q 800 530 719 597 q 889 353 888 458 q 793 140 890 239 q 349 -23 634 -23 q 227 -14 288 -23 q 109 42 156 -4 q 62 151 62 88 q 115 266 62 218 q 241 314 168 314 q 370 266 317 314 q 422 151 422 218 q 411 93 422 122 q 549 172 492 103 q 603 314 603 237 q 546 429 603 385 q 359 479 481 479 l 179 479 l 346 954 l 956 954 z "},"6":{"ha":1004,"x_min":74,"x_max":951,"o":"m 951 366 q 812 79 951 186 q 500 -20 685 -20 q 208 68 328 -20 q 74 332 74 166 q 248 710 74 532 q 600 954 382 847 l 796 954 q 501 684 597 802 q 355 321 355 504 q 398 177 355 233 q 530 114 446 114 q 705 248 666 114 q 717 278 710 262 q 593 323 646 279 q 538 440 538 371 q 593 558 538 511 q 718 603 646 603 q 887 537 823 603 q 951 366 951 471 z "},"7":{"ha":846,"x_min":41,"x_max":833,"o":"m 833 954 l 621 461 l 750 461 l 699 353 l 574 353 l 422 0 l 178 0 l 332 353 l 186 353 l 237 461 l 374 461 l 509 761 l 211 761 l 176 690 l 41 690 l 149 954 l 833 954 z "},"8":{"ha":1004,"x_min":66,"x_max":960,"o":"m 960 701 q 833 498 960 580 q 909 307 909 411 q 770 64 909 156 q 488 -17 647 -17 q 196 52 303 -17 q 66 307 66 134 q 250 585 66 483 q 214 701 214 638 q 342 905 214 827 q 586 971 453 971 q 838 913 738 971 q 960 701 960 842 m 714 758 q 691 815 714 793 q 635 838 668 838 q 533 755 562 838 l 473 581 l 553 581 q 659 619 626 581 q 707 721 678 642 q 714 758 714 740 m 652 461 l 525 461 q 431 422 467 461 q 382 332 404 393 q 349 229 366 281 q 340 186 340 206 q 372 125 340 149 q 441 103 401 103 q 562 196 531 103 l 652 461 z "},"9":{"ha":914,"x_min":72,"x_max":850,"o":"m 850 608 q 688 237 850 410 q 345 1 552 93 l 135 1 q 428 304 340 153 q 178 387 277 307 q 72 619 72 473 q 180 869 72 770 q 437 966 283 964 q 850 608 850 975 m 591 724 q 498 859 591 859 q 382 760 429 859 q 342 599 342 677 q 380 486 342 538 q 484 421 422 431 q 556 559 522 465 q 591 724 591 656 z "}," ":{"ha":530,"x_min":0,"x_max":0,"o":""},"!":{"ha":624,"x_min":146,"x_max":737,"o":"m 737 954 l 399 300 l 239 300 l 401 954 l 737 954 m 408 97 q 370 12 408 47 q 277 -24 332 -24 q 184 12 222 -24 q 146 97 146 47 q 184 183 146 147 q 278 218 222 218 q 370 183 332 218 q 408 97 408 147 z "},"\"":{"ha":653,"x_min":102,"x_max":654,"o":"m 654 954 l 497 647 l 374 646 l 454 954 l 654 954 m 382 954 l 225 647 l 102 646 l 182 954 l 382 954 z "},"#":{"ha":928,"x_min":18,"x_max":1036,"o":"m 1036 661 l 991 561 l 807 561 l 747 396 l 932 396 l 886 292 l 713 292 l 607 -1 l 468 -1 l 572 292 l 376 292 l 271 -1 l 132 0 l 236 293 l 18 293 l 66 396 l 269 396 l 329 561 l 111 561 l 160 663 l 361 663 l 467 956 l 607 956 l 501 661 l 703 661 l 808 956 l 942 956 l 838 661 l 1036 661 m 671 561 l 471 561 l 411 396 l 612 396 l 671 561 z "},"$":{"ha":1078,"x_min":85,"x_max":1135,"o":"m 1135 775 q 1077 650 1135 702 q 936 599 1019 599 q 832 625 880 599 l 777 497 l 827 421 q 891 235 891 322 q 802 62 891 129 q 604 0 720 0 l 555 -134 l 484 -134 l 532 0 l 378 0 l 330 -129 l 258 -129 l 306 1 q 283 0 298 0 q 143 52 201 0 q 85 176 85 104 q 143 301 85 250 q 283 353 201 353 q 415 307 361 353 l 472 461 q 340 738 340 602 q 350 810 340 774 q 647 954 391 954 l 653 954 l 685 1046 l 743 1046 l 711 954 l 878 954 l 909 1042 l 968 1042 l 936 951 q 1077 900 1019 951 q 1135 775 1135 848 m 775 673 q 737 775 737 718 q 740 799 737 778 q 743 823 743 821 q 701 829 720 829 q 623 751 623 829 q 656 650 623 691 l 732 553 l 775 673 m 566 347 l 519 408 l 463 253 q 482 176 482 212 q 468 111 482 146 q 509 106 490 106 q 587 138 558 106 q 614 216 614 168 q 566 347 614 282 z "},"%":{"ha":808,"x_min":31,"x_max":791,"o":"m 439 839 q 397 746 439 785 q 297 708 355 708 q 197 746 239 708 q 155 838 155 785 q 197 930 155 892 q 297 968 239 968 q 397 930 355 968 q 439 839 439 892 m 791 954 l 189 0 l 31 0 l 625 954 l 791 954 m 705 111 q 664 20 705 58 q 564 -18 622 -18 q 464 20 505 -18 q 422 111 422 58 q 464 203 422 165 q 564 241 505 241 q 664 203 623 241 q 705 111 705 165 z "},"&":{"ha":1075,"x_min":45,"x_max":1076,"o":"m 1076 109 q 1025 26 1076 57 q 926 0 981 0 l 328 0 q 138 43 213 0 q 45 203 45 96 q 166 425 45 330 q 412 550 250 490 l 359 703 q 351 753 351 727 q 472 920 351 859 q 686 968 568 968 q 977 775 977 968 q 882 609 977 680 q 671 500 824 566 q 810 109 694 431 l 1076 109 m 785 765 q 758 820 785 800 q 694 840 732 840 q 627 819 660 840 q 587 756 587 793 q 591 732 587 744 q 625 631 597 715 q 785 765 785 702 m 567 109 l 463 407 q 310 218 310 323 q 453 109 310 109 l 567 109 z "},"'":{"ha":334,"x_min":102,"x_max":382,"o":"m 382 954 l 225 647 l 102 646 l 182 954 l 382 954 z "},"(":{"ha":528,"x_min":126,"x_max":715,"o":"m 715 1042 q 475 779 588 941 q 328 460 353 602 q 309 252 309 349 q 397 -138 309 28 l 290 -138 q 126 332 126 42 q 581 1042 126 764 l 715 1042 z "},")":{"ha":528,"x_min":-90,"x_max":497,"o":"m 497 572 q 486 439 497 500 q 45 -135 425 97 l -90 -135 q 149 126 36 -35 q 297 444 273 304 q 316 653 316 552 q 228 1042 316 873 l 335 1042 q 497 572 497 863 z "},"*":{"ha":656,"x_min":158,"x_max":551,"o":"m 551 823 l 452 823 l 519 762 l 460 708 l 393 770 l 393 688 l 309 688 l 309 774 l 237 708 l 178 762 l 245 823 l 158 823 l 158 900 l 249 900 l 182 960 l 241 1014 l 309 953 l 309 1043 l 393 1043 l 393 957 l 456 1014 l 515 960 l 449 900 l 551 900 l 551 823 z "},"+":{"ha":833,"x_min":3,"x_max":857,"o":"m 857 536 l 793 364 l 494 364 l 382 61 l 194 61 l 304 364 l 3 364 l 66 536 l 366 536 l 479 839 l 669 839 l 556 536 l 857 536 z "},",":{"ha":380,"x_min":125,"x_max":396,"o":"m 396 171 l 229 -92 l 125 -92 l 218 171 l 396 171 z "},"-":{"ha":707,"x_min":32,"x_max":549,"o":"m 549 395 l 489 222 l 32 222 l 92 395 l 549 395 z "},".":{"ha":422,"x_min":160,"x_max":396,"o":"m 396 87 q 361 11 396 43 q 278 -21 327 -21 q 194 11 229 -21 q 160 87 160 43 q 194 164 160 132 q 278 196 229 196 q 361 164 327 196 q 396 87 396 132 z "},"/":{"ha":677,"x_min":115,"x_max":783,"o":"m 783 954 l 261 0 l 115 0 l 637 954 l 783 954 z "},":":{"ha":528,"x_min":132,"x_max":432,"o":"m 432 372 q 397 296 432 328 q 313 264 362 264 q 230 296 264 264 q 196 372 196 328 q 231 449 196 417 q 314 481 265 481 q 397 449 363 481 q 432 372 432 417 m 368 87 q 334 11 368 43 q 250 -21 299 -21 q 166 11 201 -21 q 132 87 132 43 q 166 164 132 132 q 250 196 201 196 q 334 164 299 196 q 368 87 368 132 z "},";":{"ha":528,"x_min":103,"x_max":446,"o":"m 446 372 q 411 296 446 328 q 326 264 376 264 q 243 296 277 264 q 208 372 208 328 q 243 449 208 417 q 328 481 278 481 q 411 449 376 481 q 446 372 446 417 m 374 171 l 207 -92 l 103 -92 l 196 171 l 374 171 z "},"<":{"ha":833,"x_min":147,"x_max":875,"o":"m 875 714 l 846 576 l 343 379 l 762 182 l 733 45 l 147 322 l 172 436 l 875 714 z "},"=":{"ha":833,"x_min":218,"x_max":903,"o":"m 903 596 q 825 488 884 531 q 714 447 771 447 l 239 447 l 319 596 l 903 596 m 882 371 l 802 222 l 218 222 q 306 330 236 283 q 407 371 366 371 l 882 371 z "},">":{"ha":833,"x_min":139,"x_max":867,"o":"m 867 436 l 842 322 l 139 45 l 168 182 l 671 379 l 252 576 l 281 714 l 867 436 z "},"?":{"ha":774,"x_min":53,"x_max":831,"o":"m 829 718 q 696 515 828 593 q 463 427 621 469 l 406 300 l 164 300 l 211 428 q 292 499 230 478 q 395 525 343 512 q 578 721 578 586 q 525 823 578 799 q 407 838 492 839 q 414 791 414 812 q 361 677 414 725 q 233 629 308 629 q 106 677 159 629 q 53 791 53 725 q 109 909 53 862 q 233 954 163 954 l 486 954 q 829 718 831 954 m 387 97 q 349 12 387 47 q 256 -24 311 -24 q 163 12 201 -24 q 125 97 125 47 q 163 183 125 147 q 257 218 202 218 q 349 183 311 218 q 387 97 387 147 z "},"@":{"ha":1219,"x_min":46,"x_max":1174,"o":"m 1174 596 q 1082 366 1174 460 q 852 269 989 269 l 690 269 q 591 332 591 269 q 425 258 529 258 q 312 301 354 258 q 269 414 269 343 q 369 616 269 542 q 597 684 460 684 l 935 684 l 821 367 l 896 367 q 1024 442 967 367 q 1078 593 1078 514 q 950 818 1078 737 q 688 886 841 886 q 323 758 480 886 q 155 419 155 623 q 281 160 155 255 q 566 75 395 75 q 911 180 751 75 l 987 126 q 553 -14 811 -14 q 207 96 354 -14 q 46 408 46 216 q 52 476 46 445 q 288 838 92 703 q 708 965 471 965 q 1028 880 902 965 q 1174 596 1174 781 m 677 586 l 547 586 q 493 425 534 550 q 489 404 489 413 q 532 367 489 373 q 600 367 535 367 l 677 586 z "},"A":{"ha":1531,"x_min":-49,"x_max":1881,"o":"m 1881 461 q 1715 353 1846 353 l 1312 353 l 1185 0 l 942 0 l 1069 353 l 861 353 q 193 -60 519 -60 q 33 -24 98 -60 q -49 107 -49 20 q 12 252 -49 181 q 310 419 111 365 q 654 461 466 461 l 786 461 l 1197 954 l 1524 954 l 1349 461 l 1881 461 m 1249 842 l 951 461 l 1103 461 l 1249 842 m 694 353 q 338 279 440 353 q 253 150 253 218 q 314 92 253 92 q 524 186 398 92 q 694 353 635 269 z "},"B":{"ha":1143,"x_min":14,"x_max":1239,"o":"m 1239 741 q 1134 554 1239 641 q 942 439 1071 502 q 994 275 994 349 q 799 52 994 124 q 473 0 659 0 l 121 0 l 366 696 l 610 696 l 401 109 l 436 109 q 637 136 555 109 q 758 271 758 177 q 731 342 758 300 q 704 403 704 384 q 705 416 704 412 q 779 475 719 446 q 901 549 863 515 q 966 679 966 605 q 807 783 966 783 l 14 783 l 118 954 l 909 954 q 1143 912 1065 954 q 1239 741 1239 861 z "},"C":{"ha":1048,"x_min":58,"x_max":1080,"o":"m 1080 789 q 1024 669 1080 718 q 899 623 970 623 q 772 669 826 623 q 715 789 715 718 q 721 829 715 812 q 457 679 576 828 q 346 389 346 538 q 711 109 346 109 l 1053 109 q 888 0 1031 0 l 637 0 q 258 68 404 0 q 60 372 58 161 q 132 608 61 490 q 408 863 229 770 q 775 954 581 954 l 911 954 q 1028 904 977 954 q 1080 789 1080 854 z "},"D":{"ha":1207,"x_min":5,"x_max":1183,"o":"m 1183 637 q 1097 375 1183 513 q 766 92 983 193 q 336 0 566 0 l 113 0 l 358 696 l 603 696 l 395 109 q 660 191 528 109 q 851 393 791 273 q 905 571 905 500 q 840 739 905 688 q 661 783 782 783 l 5 783 l 110 954 l 766 954 q 1050 882 937 954 q 1183 637 1183 798 z "},"E":{"ha":1076,"x_min":31,"x_max":1114,"o":"m 1114 791 q 1061 677 1114 724 q 933 629 1008 629 q 807 677 859 629 q 754 791 754 724 q 764 846 754 823 l 684 846 q 618 813 645 846 q 591 742 591 781 q 613 651 591 710 q 635 559 635 591 q 556 484 635 522 q 410 401 443 429 q 330 227 330 335 q 422 121 330 145 q 581 109 468 109 l 1075 109 q 1013 26 1066 56 q 909 0 967 0 l 353 0 q 142 43 228 0 q 31 210 31 98 q 151 430 31 330 q 385 549 250 511 q 346 703 346 633 q 486 902 346 835 q 742 954 593 954 l 949 954 q 1065 906 1017 954 q 1114 791 1114 857 z "},"F":{"ha":1139,"x_min":-1,"x_max":1333,"o":"m 1333 954 l 1229 783 l 989 783 l 876 461 l 1095 461 q 965 353 1085 354 l 838 351 l 785 201 q 505 0 714 0 l 31 0 q 83 108 60 76 q 175 164 122 164 q 192 163 183 164 l 509 113 l 743 783 l 355 783 q 198 732 268 783 q 122 593 122 677 q 161 526 122 534 q 228 627 174 589 q 343 664 278 664 q 465 621 414 664 q 521 501 521 574 q 454 374 521 420 q 313 335 397 335 q 95 396 182 335 q -1 585 -1 465 q 141 865 -1 764 q 453 954 267 954 l 1333 954 z "},"G":{"ha":1197,"x_min":71,"x_max":1143,"o":"m 1143 790 q 1087 673 1143 720 q 962 628 1034 628 q 838 673 891 628 q 782 790 782 720 q 789 838 782 812 l 774 838 q 481 690 610 838 q 355 382 355 547 q 459 171 355 243 q 694 109 549 109 l 821 461 l 1074 461 q 905 -20 1018 300 q 649 -171 852 -171 q 595 -170 625 -171 l 657 0 q 273 68 421 0 q 71 370 71 162 q 142 604 71 485 q 429 866 241 772 q 811 954 606 954 l 962 954 q 1086 907 1033 954 q 1143 790 1143 859 z "},"H":{"ha":1527,"x_min":-37,"x_max":1864,"o":"m 1864 461 q 1714 353 1845 353 l 1312 353 l 1187 0 l 943 0 l 1069 353 l 840 353 q 233 -121 648 -120 q 50 -77 121 -121 q -37 82 -37 -24 q 18 249 -37 165 q 534 461 159 461 l 633 461 l 843 1057 l 1086 1057 l 873 461 l 1107 461 l 1280 954 l 1525 954 l 1350 461 l 1864 461 m 595 353 l 575 353 q 335 284 441 353 q 212 79 212 205 q 290 -8 212 -8 q 484 129 388 -8 q 595 353 555 231 z "},"I":{"ha":999,"x_min":-1,"x_max":1051,"o":"m 1051 954 l 786 201 q 505 0 715 0 l 31 0 q 83 108 60 76 q 175 164 122 164 q 192 163 183 164 l 509 113 l 746 783 l 354 783 q 198 732 267 783 q 122 593 122 677 q 161 526 122 534 q 228 627 174 589 q 343 664 278 664 q 465 621 414 664 q 521 501 521 574 q 454 374 521 420 q 313 335 397 335 q 95 396 182 335 q -1 585 -1 465 q 141 865 -1 764 q 454 954 267 954 l 1051 954 z "},"J":{"ha":997,"x_min":-1,"x_max":1050,"o":"m 1050 954 l 815 285 q 551 -95 729 39 q 236 -208 399 -208 q 71 -163 135 -208 q 4 -39 4 -116 q 57 76 4 28 q 184 123 110 123 q 313 76 260 123 q 366 -39 366 28 q 363 -66 366 -50 q 477 50 428 -39 q 542 205 504 98 l 746 783 l 355 783 q 198 732 268 783 q 122 593 122 677 q 161 526 122 534 q 228 627 174 589 q 343 664 278 664 q 465 621 414 664 q 521 501 521 574 q 454 374 521 420 q 313 335 397 335 q 95 396 182 335 q -1 585 -1 465 q 141 865 -1 764 q 453 954 267 954 l 1050 954 z "},"K":{"ha":1133,"x_min":-36,"x_max":1348,"o":"m 1348 954 l 793 461 l 844 461 q 939 378 939 461 q 926 314 939 350 l 854 109 l 1136 109 q 939 0 1105 0 l 701 0 q 604 73 604 0 q 610 109 604 90 l 700 379 l 346 64 q 180 0 274 0 l 66 0 l 343 783 l -36 783 l 68 954 l 490 954 q 606 867 606 954 q 593 798 606 837 l 428 309 l 1136 954 l 1348 954 z "},"L":{"ha":1430,"x_min":3,"x_max":1489,"o":"m 1489 804 q 1432 687 1489 734 q 1308 642 1379 642 q 1176 694 1229 642 q 1129 825 1123 746 q 1064 808 1107 828 q 946 486 968 765 q 625 109 924 211 l 1429 109 q 1247 0 1400 0 l 3 0 q 143 164 60 164 q 273 134 180 164 q 406 104 365 104 q 596 317 522 104 l 704 629 q 1292 970 822 970 q 1427 928 1371 970 q 1489 804 1489 881 z "},"M":{"ha":1568,"x_min":-11,"x_max":1569,"o":"m 1569 109 q 1381 0 1541 0 l 1137 0 q 1023 66 1023 0 q 1038 126 1023 89 l 1150 419 l 814 50 q 695 -10 760 -10 q 669 -8 683 -10 q 592 69 592 1 q 604 126 592 96 l 771 557 l 353 52 q 229 0 311 0 l 92 0 l 366 783 l -11 783 l 92 954 l 545 954 q 638 886 638 954 q 625 822 638 859 l 479 401 l 771 732 q 857 814 827 795 q 985 846 906 846 q 1031 830 1007 846 q 1069 758 1069 806 q 1054 690 1069 728 l 922 349 l 1183 611 q 1257 678 1239 667 q 1349 696 1289 696 q 1399 678 1373 696 q 1440 601 1440 652 q 1426 536 1440 572 l 1264 109 l 1569 109 z "},"N":{"ha":1325,"x_min":0,"x_max":1584,"o":"m 1584 812 q 1527 695 1584 742 q 1402 650 1474 650 q 1279 694 1330 650 l 1054 69 q 943 -21 1022 -21 q 818 71 838 -21 l 705 604 l 553 153 q 462 40 529 82 q 322 0 399 0 l 0 0 q 51 105 30 75 q 144 164 91 164 q 243 150 177 164 q 343 136 309 136 q 444 224 414 136 l 653 829 q 699 930 680 908 q 799 971 730 971 q 930 827 901 971 l 1023 363 l 1164 757 q 1401 975 1242 975 q 1527 930 1473 975 q 1584 812 1584 883 z "},"O":{"ha":1231,"x_min":-5,"x_max":1171,"o":"m 1171 606 q 973 169 1171 355 q 543 -11 782 -11 q 266 84 368 -11 q 164 345 164 179 q 204 528 164 430 q 304 696 242 621 l 603 696 q 476 522 526 628 q 425 314 425 414 q 459 175 425 232 q 576 107 500 107 q 807 272 704 107 q 899 555 899 420 q 836 723 899 663 q 664 783 774 783 l -5 783 l 98 954 l 722 954 q 1031 877 912 954 q 1171 606 1171 785 z "},"P":{"ha":1112,"x_min":71,"x_max":1223,"o":"m 1223 728 q 946 383 1223 527 q 505 236 761 286 l 422 0 l 175 0 l 422 696 l 668 696 l 551 370 q 785 463 683 399 q 932 669 926 551 q 881 769 935 745 q 764 783 848 783 l 71 783 l 176 954 l 875 954 q 1109 916 1028 954 q 1223 728 1223 863 z "},"Q":{"ha":1118,"x_min":0,"x_max":1121,"o":"m 1121 109 q 954 0 1094 0 l 0 0 q 150 165 66 165 q 172 163 161 165 l 399 109 q 596 203 486 109 q 753 399 700 292 q 810 610 810 515 q 735 786 810 721 q 571 844 669 844 q 408 798 475 844 q 334 654 334 745 q 472 714 389 714 q 600 666 547 714 q 653 551 653 618 q 596 433 653 481 q 472 389 543 389 q 272 475 347 389 q 204 668 204 553 q 310 890 204 798 q 632 993 429 993 q 975 884 855 993 q 1080 631 1080 787 q 955 311 1080 460 q 614 109 821 153 l 1121 109 z "},"R":{"ha":1194,"x_min":29,"x_max":1194,"o":"m 1194 109 q 1147 27 1192 58 q 1053 0 1106 0 l 791 0 q 710 28 738 0 q 664 109 692 47 l 530 404 q 646 443 555 409 q 757 488 734 475 q 892 663 892 557 q 721 783 892 783 l 29 783 l 135 954 l 818 954 q 1186 720 1186 954 q 803 372 1186 521 l 925 109 l 1194 109 m 627 696 l 379 0 l 135 0 l 380 696 l 627 696 z "},"S":{"ha":1337,"x_min":46,"x_max":1524,"o":"m 1524 790 q 1471 675 1524 723 q 1343 628 1417 628 q 1215 675 1268 628 q 1162 790 1162 723 q 1168 831 1162 806 q 1129 833 1137 833 q 1026 747 1026 833 q 1087 550 1026 703 q 1147 310 1147 397 q 942 31 1147 124 q 583 -37 789 -37 q 250 15 395 -37 q 46 240 46 88 q 422 461 46 461 l 681 461 l 730 353 l 529 353 q 397 326 453 353 q 323 224 323 292 q 425 104 323 147 q 591 71 503 71 q 779 120 704 71 q 867 283 867 177 q 811 494 867 357 q 755 707 755 631 q 1177 954 755 954 l 1344 954 q 1468 907 1413 954 q 1524 790 1524 858 z "},"T":{"ha":1029,"x_min":-1,"x_max":1333,"o":"m 1333 954 l 1242 783 l 990 783 l 783 201 q 505 0 711 0 l 31 0 q 83 108 60 76 q 175 164 122 164 q 192 163 183 164 l 509 113 l 746 783 l 354 783 q 198 732 267 783 q 122 593 122 677 q 161 526 122 534 q 235 633 181 595 q 347 667 285 667 q 475 616 427 667 q 521 503 521 568 q 467 387 521 433 q 298 334 407 334 q 95 399 180 334 q -1 603 -1 474 q 111 842 -1 742 q 454 954 237 954 l 1333 954 z "},"U":{"ha":1108,"x_min":-22,"x_max":1129,"o":"m 1129 804 q 1093 604 1129 726 q 1021 412 1062 499 q 807 92 911 182 q 446 -24 673 -24 q 253 27 326 -24 q 168 200 168 86 q 187 307 168 252 l 357 783 l -22 783 l 81 954 l 663 954 l 440 319 q 422 222 422 268 q 456 142 422 171 q 541 114 488 114 q 864 421 726 114 q 933 629 918 541 q 794 677 853 629 q 730 806 730 728 q 793 932 730 881 q 929 982 852 982 q 1068 935 1011 982 q 1129 804 1129 884 z "},"V":{"ha":939,"x_min":-62,"x_max":1055,"o":"m 1054 810 q 991 644 1053 720 l 555 109 q 357 0 467 0 l 183 0 l 252 783 l -62 783 l 39 954 l 367 954 q 459 920 422 954 q 496 834 496 886 q 496 821 496 827 l 425 131 l 840 648 q 735 705 777 661 q 693 810 693 749 q 746 925 693 877 q 873 972 799 972 q 1002 924 949 972 q 1054 810 1055 876 z "},"W":{"ha":1377,"x_min":26,"x_max":1571,"o":"m 1571 954 l 1090 86 q 943 0 1042 0 l 859 0 l 859 603 l 525 83 q 367 0 471 0 l 271 0 l 342 783 l 26 783 l 131 954 l 431 954 q 525 929 486 954 q 578 821 578 895 q 576 799 578 810 l 528 339 l 851 852 q 913 927 886 907 q 1017 954 951 954 l 1083 954 l 1083 353 l 1409 954 l 1571 954 z "},"X":{"ha":1249,"x_min":1,"x_max":1362,"o":"m 1362 829 q 1307 711 1362 759 q 1183 667 1254 667 q 1089 691 1136 667 q 1017 755 1042 716 l 787 515 l 895 109 l 1249 109 q 1184 25 1240 55 q 1078 0 1137 0 l 811 0 q 697 40 745 0 q 633 143 652 79 l 587 300 l 371 74 q 182 -18 283 -18 q 57 26 111 -18 q 1 144 1 74 q 54 260 1 212 q 182 307 107 307 q 345 214 294 307 l 551 431 l 468 783 l 131 783 l 233 954 l 518 954 q 725 807 694 954 l 758 647 l 961 859 q 1057 951 1034 935 q 1182 991 1112 991 q 1307 947 1254 991 q 1362 829 1362 900 z "},"Y":{"ha":1171,"x_min":7,"x_max":1247,"o":"m 1247 954 l 960 129 q 887 35 939 69 q 772 0 836 0 l 248 0 q 311 96 264 61 q 421 131 357 131 l 714 131 l 857 533 l 653 317 q 485 250 590 250 q 382 277 424 250 q 334 367 334 309 q 343 422 334 395 l 486 823 l 364 823 q 367 791 367 804 q 314 677 367 724 q 187 629 262 629 q 60 677 113 629 q 7 791 7 724 q 62 909 7 862 q 186 954 115 954 l 627 954 q 703 927 673 954 q 732 852 732 899 q 722 799 732 826 l 578 393 l 977 904 q 1027 939 992 924 q 1088 954 1061 954 l 1247 954 z "},"Z":{"ha":1083,"x_min":-22,"x_max":1322,"o":"m 1322 461 q 1196 353 1290 353 l 778 353 q 779 323 779 343 q 579 -33 779 126 q 187 -183 391 -183 q 35 -129 92 -183 q -17 17 -22 -75 q 153 323 -5 199 q 478 456 292 433 q 363 587 442 526 l 737 783 l 228 783 l 330 954 l 1036 954 q 1017 829 1037 875 q 928 741 992 775 l 654 593 q 753 461 727 536 l 1322 461 m 536 329 q 525 353 534 339 q 392 298 466 346 q 282 201 322 253 q 178 -17 178 67 q 231 -77 178 -77 q 433 48 328 -77 q 538 295 538 172 q 536 329 538 313 z "},"[":{"ha":511,"x_min":-22,"x_max":657,"o":"m 657 1025 l 632 954 l 591 954 q 530 931 551 954 q 498 868 515 915 l 200 16 q 188 -39 188 -20 q 235 -71 188 -71 l 275 -71 l 249 -142 l 86 -142 q -22 -66 -22 -142 q -9 -5 -22 -40 l 302 889 q 494 1025 351 1025 l 657 1025 z "},"\\":{"ha":386,"x_min":-94,"x_max":481,"o":"m 481 -14 l 336 -14 l -94 1039 l 50 1039 l 481 -14 z "},"]":{"ha":511,"x_min":-96,"x_max":583,"o":"m 571 890 l 258 -4 q 66 -140 211 -140 l -96 -140 l -71 -69 l -31 -69 q 31 -47 10 -69 q 62 17 46 -30 l 361 869 q 374 924 374 905 q 326 956 374 956 l 286 956 l 313 1026 l 475 1026 q 583 951 583 1026 q 571 890 583 925 z "},"^":{"ha":972,"x_min":182,"x_max":777,"o":"m 777 248 l 636 248 l 541 492 l 336 248 l 182 248 l 500 636 l 631 636 l 777 248 z "},"_":{"ha":939,"x_min":-375,"x_max":1193,"o":"m 1193 -229 q 1104 -359 1193 -298 q 933 -419 1018 -419 l -375 -419 q -1 -229 -308 -229 l 1193 -229 z "},"`":{"ha":694,"x_min":37,"x_max":278,"o":"m 278 543 l 201 543 l 37 753 l 220 753 l 278 543 z "},"a":{"ha":875,"x_min":-17,"x_max":876,"o":"m 876 109 q 710 0 844 0 l 453 0 q 343 71 343 0 q 161 -14 269 -14 q 33 35 82 -14 q -17 163 -17 84 q 92 387 -17 304 q 335 461 190 461 l 722 461 l 595 109 l 876 109 m 439 353 l 289 353 l 241 195 q 237 168 237 180 q 353 109 237 109 l 439 353 z "},"b":{"ha":812,"x_min":-1,"x_max":1227,"o":"m 1227 461 q 1078 353 1183 353 l 711 353 q 511 67 685 159 q 214 0 384 0 l 90 0 q 32 16 57 0 q -1 82 -1 38 q 9 139 -1 107 l 252 818 l 496 818 l 243 110 q 450 227 389 106 q 387 334 387 266 q 428 424 387 387 q 526 461 469 461 l 1227 461 z "},"c":{"ha":839,"x_min":-20,"x_max":848,"o":"m 848 109 q 786 26 833 56 q 685 0 743 0 l 277 0 q 81 39 160 0 q -20 189 -20 89 q -18 211 -20 199 q 108 401 -5 332 q 342 461 207 461 l 513 461 q 611 425 570 461 q 652 335 652 388 q 611 244 652 281 q 513 207 570 207 q 415 244 455 207 q 375 336 374 282 q 375 353 375 336 l 293 353 l 240 203 q 233 168 233 184 q 328 109 233 109 l 848 109 z "},"d":{"ha":904,"x_min":-14,"x_max":907,"o":"m 907 109 q 741 0 873 0 l 482 0 q 372 71 370 0 q 172 -17 298 -17 q 39 29 90 -17 q -14 158 -14 77 q 106 389 -14 305 q 364 461 211 461 l 505 461 l 632 819 l 879 819 l 627 109 l 907 109 m 468 353 l 296 353 l 244 207 q 237 170 237 186 q 295 113 237 125 q 382 109 315 109 l 468 353 z "},"e":{"ha":848,"x_min":-24,"x_max":852,"o":"m 852 109 q 787 26 838 56 q 684 0 742 0 l 306 0 q -24 199 -24 0 q 89 399 -24 326 q 319 461 186 461 l 418 461 q 569 435 504 461 q 660 328 656 399 q 590 207 663 255 l 366 207 l 439 353 l 296 353 l 240 189 q 235 163 235 175 q 323 109 235 109 l 852 109 z "},"f":{"ha":713,"x_min":-104,"x_max":1023,"o":"m 1023 461 q 848 353 1002 353 l 397 353 q 454 150 460 295 q 271 -156 448 -22 q -33 -273 113 -277 q -83 -252 -61 -273 q -104 -201 -104 -231 q -100 -178 -104 -190 l 72 307 q 14 344 37 317 q -14 412 -14 374 q -3 461 -14 436 l 125 461 l 252 818 l 496 818 l 346 461 l 1023 461 m 254 45 q 263 71 254 45 q 272 136 272 97 q 236 220 272 192 q 62 -171 180 90 q 178 -73 117 -142 q 254 45 237 -7 z "},"g":{"ha":872,"x_min":-17,"x_max":880,"o":"m 880 109 q 679 0 849 0 l 558 0 q 438 -237 498 -164 q 216 -345 351 -345 q 95 -302 140 -345 q 50 -184 50 -260 q 136 5 50 -37 q 31 64 73 20 q -17 186 -17 115 q -8 244 -17 214 q 120 411 21 355 q 329 461 207 461 l 717 461 l 593 109 l 880 109 m 433 353 l 289 353 l 235 180 q 230 152 230 165 q 314 94 230 94 q 330 95 319 94 q 346 96 340 96 l 433 353 m 314 -18 q 232 -69 270 -18 q 193 -170 193 -119 q 232 -241 193 -214 l 314 -18 z "},"h":{"ha":928,"x_min":-40,"x_max":928,"o":"m 928 109 q 852 20 910 49 q 764 0 811 0 l 475 0 q 398 56 398 0 q 408 109 398 77 l 457 253 l 200 41 q 100 0 153 0 l -40 0 l 250 819 l 494 819 l 290 243 l 497 412 q 679 478 577 478 q 747 409 747 478 q 734 351 747 384 l 648 109 l 928 109 z "},"i":{"ha":517,"x_min":-8,"x_max":517,"o":"m 468 739 q 415 624 468 671 q 289 576 363 576 q 161 624 214 576 q 109 739 109 671 q 161 854 109 806 q 289 901 214 901 q 415 854 363 901 q 468 739 468 806 m 517 109 q 444 20 499 49 q 357 0 404 0 l 89 0 q -8 81 -8 0 q 1 131 -8 104 l 119 461 l 366 461 l 240 109 l 517 109 z "},"j":{"ha":582,"x_min":-212,"x_max":585,"o":"m 522 739 q 470 624 522 671 q 343 576 417 576 q 215 624 268 576 q 163 739 163 671 q 215 854 163 806 q 343 901 268 901 q 470 854 417 901 q 522 739 522 806 m 585 109 q 401 0 553 0 l 258 0 l 225 -93 q 114 -238 191 -186 q -62 -288 39 -288 q -173 -233 -130 -288 q -212 -111 -212 -182 q -136 55 -212 -5 q 47 111 -64 111 l 174 461 l 419 461 l 294 109 l 585 109 m 14 0 q -54 -40 -29 -7 q -79 -117 -79 -73 q -53 -186 -79 -164 l 14 0 z "},"k":{"ha":933,"x_min":-39,"x_max":930,"o":"m 930 109 q 852 20 913 49 q 761 0 810 0 l 494 0 q 401 72 401 0 q 411 121 401 94 l 481 310 q 232 83 450 277 q 151 20 178 35 q 62 0 114 0 l -39 0 l 250 818 l 494 818 l 314 311 l 585 581 l 741 581 l 583 418 l 635 418 q 729 345 729 418 q 718 292 729 322 l 652 109 l 930 109 z "},"l":{"ha":519,"x_min":-6,"x_max":525,"o":"m 525 109 q 447 20 508 49 q 355 0 404 0 l 94 0 q -6 68 -6 0 q 1 109 -6 86 l 253 818 l 493 818 l 240 109 l 525 109 z "},"m":{"ha":1328,"x_min":-40,"x_max":1329,"o":"m 1329 109 q 1175 0 1310 0 l 900 0 q 840 27 867 0 q 812 87 812 54 q 815 109 812 98 q 860 254 830 159 l 631 62 q 482 -9 544 -9 q 390 60 390 -9 q 400 109 390 82 l 454 254 l 184 29 q 98 0 150 0 l -40 0 l 122 461 l 367 461 l 290 244 l 498 415 q 673 479 576 479 q 753 418 753 479 q 746 379 753 400 l 697 244 l 900 416 q 1064 479 974 479 q 1149 407 1149 479 q 1139 353 1149 382 l 1051 109 l 1329 109 z "},"n":{"ha":921,"x_min":-36,"x_max":929,"o":"m 929 109 q 851 20 911 49 q 760 0 808 0 l 489 0 q 396 61 396 0 q 406 109 396 81 l 457 254 l 224 57 q 89 0 142 0 l -36 0 l 126 461 l 371 461 l 294 244 l 501 414 q 684 479 585 482 q 750 409 750 477 q 739 353 750 384 l 652 109 l 929 109 z "},"o":{"ha":807,"x_min":-31,"x_max":1154,"o":"m 1154 461 q 991 353 1127 353 l 567 353 q 604 298 589 338 q 615 229 618 258 q 515 52 606 116 q 292 -11 429 -10 q 45 52 132 -12 q -31 202 -31 109 q -28 239 -31 220 q 74 399 -10 341 q 313 461 163 461 l 1154 461 m 415 353 l 260 353 l 199 179 q 194 153 194 165 q 302 95 194 95 q 325 96 315 95 l 415 353 z "},"p":{"ha":889,"x_min":-132,"x_max":888,"o":"m 888 109 q 833 26 882 56 q 730 0 789 0 l 361 0 q 275 86 277 0 q 338 111 307 99 q 406 161 383 132 q 437 260 437 199 q 403 326 437 297 q 326 353 368 354 l 114 -261 l -132 -261 l 174 625 l 419 625 l 363 461 q 565 447 515 461 q 681 292 686 414 q 633 182 678 237 q 525 109 586 125 l 888 109 z "},"q":{"ha":875,"x_min":-12,"x_max":873,"o":"m 873 109 q 795 20 857 49 q 704 0 753 0 l 562 0 l 467 -278 l 415 -278 q 321 -243 362 -278 q 278 -148 278 -205 q 288 -94 278 -122 l 345 69 q 158 -14 271 -14 q 117 -11 138 -14 q 20 48 55 -3 q -12 165 -12 96 q -1 243 -12 204 q 134 414 31 357 q 336 461 220 461 l 724 461 l 602 109 l 873 109 m 440 353 l 296 353 l 244 207 q 238 174 238 189 q 354 109 238 109 l 440 353 z "},"r":{"ha":794,"x_min":-11,"x_max":794,"o":"m 794 109 q 742 28 794 61 q 646 0 696 0 l 386 0 q 283 85 283 0 q 292 132 283 107 l 368 353 l 224 353 l 149 158 q 66 109 130 109 l -5 109 l 83 353 q 15 395 41 362 q -11 471 -11 428 q 62 591 -11 549 q 205 627 122 627 l 315 627 l 258 461 l 633 461 l 510 109 l 794 109 z "},"s":{"ha":818,"x_min":-4,"x_max":819,"o":"m 819 109 q 767 32 817 63 q 660 0 718 0 l 144 0 q -4 91 -4 0 q -3 109 -4 99 q 41 172 3 149 q 115 191 73 191 q 314 110 189 189 q 350 201 350 155 q 321 306 350 224 l 244 236 l 109 236 l 289 403 q 272 437 277 424 q 262 494 263 463 l 429 672 q 542 570 542 653 q 513 479 542 521 q 564 347 538 413 q 595 208 595 261 q 549 109 595 150 l 819 109 z "},"t":{"ha":603,"x_min":-31,"x_max":603,"o":"m 603 109 q 433 0 571 0 l 87 0 q -13 71 -13 0 q -5 109 -13 88 l 81 353 l -31 353 l 12 461 q 189 539 131 492 q 328 733 254 593 l 460 733 l 364 461 l 539 461 q 368 353 497 353 l 323 353 l 239 109 l 603 109 z "},"u":{"ha":897,"x_min":-3,"x_max":900,"o":"m 900 109 q 838 23 886 52 q 757 0 800 0 l 473 0 q 374 64 374 0 q 231 0 321 0 l 111 0 q 26 28 56 0 q -3 98 -3 55 q 7 149 -3 123 l 121 461 l 367 461 l 240 109 l 378 109 l 504 461 l 747 461 l 624 109 l 900 109 z "},"v":{"ha":708,"x_min":-24,"x_max":1018,"o":"m 1018 461 q 940 373 1001 401 q 848 353 897 353 l 564 353 l 277 0 l 5 0 l -24 461 l 222 461 l 227 127 l 481 461 l 1018 461 z "},"w":{"ha":1150,"x_min":-10,"x_max":1089,"o":"m 1089 461 l 966 109 q 798 0 916 0 l 454 0 q 354 60 364 0 q 211 0 304 0 l 90 0 q -10 71 -10 0 q -3 109 -10 88 l 121 461 l 367 461 l 240 109 l 358 109 l 485 461 l 728 461 l 604 109 l 720 109 l 846 461 l 1089 461 z "},"x":{"ha":676,"x_min":-147,"x_max":697,"o":"m 697 461 l 429 265 l 606 0 l 330 0 l 243 129 l 65 0 l -147 0 l 171 235 l 17 461 l 300 461 l 358 374 l 476 461 l 697 461 z "},"y":{"ha":900,"x_min":-4,"x_max":903,"o":"m 903 109 q 753 0 863 0 l 587 0 q 463 -237 528 -160 q 237 -345 372 -345 q 106 -295 153 -345 q 66 -183 66 -252 q 90 -78 66 -129 q 151 0 113 -27 l 100 0 q 25 27 55 0 q -4 96 -4 55 q 3 135 -4 115 l 121 461 l 367 461 l 240 109 l 378 109 l 503 461 l 747 461 l 623 109 l 903 109 m 335 -18 q 252 -69 290 -18 q 214 -170 214 -119 q 253 -241 214 -214 l 335 -18 z "},"z":{"ha":718,"x_min":-8,"x_max":720,"o":"m 720 109 q 562 0 688 0 l 119 0 q -8 66 -8 0 q 26 146 -8 110 l 228 353 l -3 353 l 35 461 l 608 461 l 286 109 l 720 109 z "},"{":{"ha":673,"x_min":-20,"x_max":644,"o":"m 644 1025 l 619 954 l 579 954 q 525 929 542 954 q 500 868 518 920 l 387 549 l 244 461 l 328 378 l 201 16 q 184 -49 184 -33 q 222 -71 184 -71 l 262 -71 l 236 -142 l 87 -142 q -20 -66 -20 -142 q -8 -5 -20 -40 l 139 418 l 96 461 l 186 550 l 304 889 q 496 1025 351 1025 l 644 1025 z "},"|":{"ha":248,"x_min":82,"x_max":170,"o":"m 170 -140 l 82 -140 l 82 1023 l 170 1023 l 170 -140 z "},"}":{"ha":673,"x_min":-117,"x_max":548,"o":"m 536 889 l 389 465 l 432 422 l 342 334 l 224 -5 q 32 -142 176 -142 l -117 -142 l -92 -71 l -52 -71 q 3 -46 -14 -71 q 28 16 9 -36 l 140 335 l 283 422 l 200 505 l 326 868 q 343 932 343 916 q 306 954 343 954 l 265 954 l 292 1025 l 440 1025 q 548 949 548 1025 q 536 889 548 923 z "},"~":{"ha":835,"x_min":83,"x_max":751,"o":"m 751 518 l 720 392 q 522 286 633 286 q 401 323 460 286 q 267 364 336 365 q 83 277 160 364 l 131 406 q 316 500 199 500 q 460 461 387 500 q 579 425 526 425 q 751 518 656 425 z "},"Ä":{"ha":1531,"x_min":-49,"x_max":1881,"o":"m 1881 461 q 1715 353 1846 353 l 1312 353 l 1185 0 l 942 0 l 1069 353 l 861 353 q 193 -60 519 -60 q 33 -24 98 -60 q -49 107 -49 20 q 12 252 -49 181 q 310 419 111 365 q 654 461 466 461 l 786 461 l 1197 954 l 1524 954 l 1349 461 l 1881 461 m 1249 842 l 951 461 l 1103 461 l 1249 842 m 694 353 q 338 279 440 353 q 253 150 253 218 q 314 92 253 92 q 524 186 398 92 q 694 353 635 269 m 1618 1103 q 1589 1039 1618 1063 q 1520 1014 1559 1014 q 1451 1040 1481 1014 q 1421 1104 1421 1066 q 1451 1168 1421 1143 q 1520 1194 1481 1194 q 1588 1169 1559 1194 q 1618 1103 1618 1142 m 1339 1103 q 1310 1039 1339 1063 q 1240 1014 1280 1014 q 1172 1040 1202 1014 q 1142 1104 1142 1066 q 1172 1168 1142 1143 q 1240 1194 1202 1194 q 1309 1169 1280 1194 q 1339 1103 1339 1142 z "},"Å":{"ha":1531,"x_min":-49,"x_max":1881,"o":"m 1881 461 q 1715 353 1846 353 l 1312 353 l 1185 0 l 942 0 l 1069 353 l 861 353 q 193 -60 519 -60 q 33 -24 98 -60 q -49 107 -49 20 q 12 252 -49 181 q 310 419 111 365 q 654 461 466 461 l 786 461 l 1197 954 l 1524 954 l 1349 461 l 1881 461 m 1249 842 l 951 461 l 1103 461 l 1249 842 m 694 353 q 338 279 440 353 q 253 150 253 218 q 314 92 253 92 q 524 186 398 92 q 694 353 635 269 m 1531 1136 q 1494 1049 1531 1085 q 1406 1013 1457 1013 q 1317 1049 1354 1013 q 1280 1136 1280 1085 q 1317 1224 1280 1188 q 1406 1261 1354 1261 q 1494 1224 1458 1261 q 1531 1136 1531 1188 m 1467 1136 q 1449 1179 1467 1161 q 1407 1197 1432 1196 q 1364 1179 1382 1198 q 1346 1136 1347 1161 q 1363 1095 1345 1113 q 1404 1076 1380 1078 q 1448 1093 1429 1075 q 1467 1136 1467 1112 z "},"Ç":{"ha":1048,"x_min":58,"x_max":1080,"o":"m 1080 789 q 1024 669 1080 718 q 899 623 970 623 q 772 669 826 623 q 715 789 715 718 q 721 829 715 812 q 457 679 576 828 q 346 389 346 538 q 711 109 346 109 l 1053 109 q 888 0 1031 0 l 637 0 q 258 68 404 0 q 60 372 58 161 q 132 608 61 490 q 408 863 229 770 q 775 954 581 954 l 911 954 q 1028 904 977 954 q 1080 789 1080 854 m 716 -140 q 678 -236 716 -200 q 547 -278 633 -278 l 312 -278 q 479 -170 334 -170 l 589 -170 q 604 -162 602 -164 q 610 -150 610 -159 q 600 -119 612 -131 q 568 -109 588 -108 q 492 -109 568 -109 l 516 -49 l 591 11 l 652 11 l 586 -39 q 716 -140 716 -39 z "},"É":{"ha":1076,"x_min":31,"x_max":1114,"o":"m 1114 791 q 1061 677 1114 724 q 933 629 1008 629 q 807 677 859 629 q 754 791 754 724 q 764 846 754 823 l 684 846 q 618 813 645 846 q 591 742 591 781 q 613 651 591 710 q 635 559 635 591 q 556 484 635 522 q 410 401 443 429 q 330 227 330 335 q 422 121 330 145 q 581 109 468 109 l 1075 109 q 1013 26 1066 56 q 909 0 967 0 l 353 0 q 142 43 228 0 q 31 210 31 98 q 151 430 31 330 q 385 549 250 511 q 346 703 346 633 q 486 902 346 835 q 742 954 593 954 l 949 954 q 1065 906 1017 954 q 1114 791 1114 857 m 1028 1222 l 819 1013 l 718 1013 l 842 1222 l 1028 1222 z "},"Ñ":{"ha":1325,"x_min":0,"x_max":1584,"o":"m 1584 812 q 1527 695 1584 742 q 1402 650 1474 650 q 1279 694 1330 650 l 1054 69 q 943 -21 1022 -21 q 818 71 838 -21 l 705 604 l 553 153 q 462 40 529 82 q 322 0 399 0 l 0 0 q 51 105 30 75 q 144 164 91 164 q 243 150 177 164 q 343 136 309 136 q 444 224 414 136 l 653 829 q 699 930 680 908 q 799 971 730 971 q 930 827 901 971 l 1023 363 l 1164 757 q 1401 975 1242 975 q 1527 930 1473 975 q 1584 812 1584 883 m 1360 1192 l 1318 1080 q 1192 1011 1259 1011 q 1088 1053 1139 1011 q 983 1095 1037 1095 q 855 1031 917 1095 l 905 1137 q 1030 1204 957 1204 q 1147 1158 1084 1204 q 1238 1121 1199 1121 q 1360 1192 1282 1121 z "},"Ö":{"ha":1231,"x_min":-5,"x_max":1171,"o":"m 1171 606 q 973 169 1171 355 q 543 -11 782 -11 q 266 84 368 -11 q 164 345 164 179 q 204 528 164 430 q 304 696 242 621 l 603 696 q 476 522 526 628 q 425 314 425 414 q 459 175 425 232 q 576 107 500 107 q 807 272 704 107 q 899 555 899 420 q 836 723 899 663 q 664 783 774 783 l -5 783 l 98 954 l 722 954 q 1031 877 912 954 q 1171 606 1171 785 m 912 1101 q 883 1037 912 1062 q 814 1013 853 1013 q 745 1039 775 1013 q 715 1103 715 1065 q 745 1167 715 1141 q 814 1193 775 1193 q 882 1168 853 1193 q 912 1101 912 1141 m 633 1101 q 604 1037 633 1062 q 534 1013 574 1013 q 466 1039 496 1013 q 436 1103 436 1065 q 466 1167 436 1141 q 534 1193 496 1193 q 603 1168 574 1193 q 633 1101 633 1141 z "},"Ü":{"ha":1108,"x_min":-22,"x_max":1129,"o":"m 1129 804 q 1093 604 1129 726 q 1021 412 1062 499 q 807 92 911 182 q 446 -24 673 -24 q 253 27 326 -24 q 168 200 168 86 q 187 307 168 252 l 357 783 l -22 783 l 81 954 l 663 954 l 440 319 q 422 222 422 268 q 456 142 422 171 q 541 114 488 114 q 864 421 726 114 q 933 629 918 541 q 794 677 853 629 q 730 806 730 728 q 793 932 730 881 q 929 982 852 982 q 1068 935 1011 982 q 1129 804 1129 884 m 921 1103 q 891 1039 921 1063 q 823 1014 862 1014 q 754 1040 784 1014 q 724 1104 724 1066 q 754 1168 724 1143 q 823 1194 784 1194 q 891 1169 862 1194 q 921 1103 921 1142 m 642 1103 q 612 1039 642 1063 q 543 1014 583 1014 q 475 1040 505 1014 q 445 1104 445 1066 q 475 1168 445 1143 q 543 1194 505 1194 q 612 1169 583 1194 q 642 1103 642 1142 z "},"á":{"ha":875,"x_min":-17,"x_max":876,"o":"m 876 109 q 710 0 844 0 l 453 0 q 343 71 343 0 q 161 -14 269 -14 q 33 35 82 -14 q -17 163 -17 84 q 92 387 -17 304 q 335 461 190 461 l 722 461 l 595 109 l 876 109 m 439 353 l 289 353 l 241 195 q 237 168 237 180 q 353 109 237 109 l 439 353 m 673 753 l 464 543 l 363 543 l 486 753 l 673 753 z "},"à":{"ha":875,"x_min":-17,"x_max":876,"o":"m 876 109 q 710 0 844 0 l 453 0 q 343 71 343 0 q 161 -14 269 -14 q 33 35 82 -14 q -17 163 -17 84 q 92 387 -17 304 q 335 461 190 461 l 722 461 l 595 109 l 876 109 m 439 353 l 289 353 l 241 195 q 237 168 237 180 q 353 109 237 109 l 439 353 m 526 543 l 449 543 l 285 753 l 467 753 l 526 543 z "},"â":{"ha":875,"x_min":-17,"x_max":876,"o":"m 876 109 q 710 0 844 0 l 453 0 q 343 71 343 0 q 161 -14 269 -14 q 33 35 82 -14 q -17 163 -17 84 q 92 387 -17 304 q 335 461 190 461 l 722 461 l 595 109 l 876 109 m 439 353 l 289 353 l 241 195 q 237 168 237 180 q 353 109 237 109 l 439 353 m 621 545 l 504 545 l 447 627 l 341 545 l 232 545 l 385 717 l 533 717 l 621 545 z "},"ä":{"ha":875,"x_min":-17,"x_max":876,"o":"m 876 109 q 710 0 844 0 l 453 0 q 343 71 343 0 q 161 -14 269 -14 q 33 35 82 -14 q -17 163 -17 84 q 92 387 -17 304 q 335 461 190 461 l 722 461 l 595 109 l 876 109 m 439 353 l 289 353 l 241 195 q 237 168 237 180 q 353 109 237 109 l 439 353 m 669 633 q 640 569 669 594 q 571 545 610 545 q 502 571 532 545 q 472 635 472 597 q 502 699 472 673 q 571 725 532 725 q 640 700 610 725 q 669 633 669 673 m 391 633 q 361 569 391 594 q 292 545 331 545 q 223 571 253 545 q 193 635 193 597 q 223 699 193 673 q 292 725 253 725 q 360 700 332 725 q 391 633 391 673 z "},"ã":{"ha":875,"x_min":-17,"x_max":876,"o":"m 876 109 q 710 0 844 0 l 453 0 q 343 71 343 0 q 161 -14 269 -14 q 33 35 82 -14 q -17 163 -17 84 q 92 387 -17 304 q 335 461 190 461 l 722 461 l 595 109 l 876 109 m 439 353 l 289 353 l 241 195 q 237 168 237 180 q 353 109 237 109 l 439 353 m 706 725 l 664 614 q 538 545 605 545 q 434 587 486 545 q 330 629 383 629 q 201 564 263 629 l 252 671 q 376 738 303 738 q 493 692 430 738 q 584 654 545 654 q 706 725 628 654 z "},"å":{"ha":875,"x_min":-17,"x_max":876,"o":"m 876 109 q 710 0 844 0 l 453 0 q 343 71 343 0 q 161 -14 269 -14 q 33 35 82 -14 q -17 163 -17 84 q 92 387 -17 304 q 335 461 190 461 l 722 461 l 595 109 l 876 109 m 439 353 l 289 353 l 241 195 q 237 168 237 180 q 353 109 237 109 l 439 353 m 590 668 q 553 581 590 617 q 465 545 517 545 q 377 581 414 545 q 340 668 340 617 q 377 756 340 720 q 465 793 414 793 q 554 756 517 793 q 590 668 590 720 m 526 668 q 509 711 526 693 q 467 729 491 728 q 424 711 441 730 q 406 668 406 693 q 422 627 405 645 q 464 608 439 610 q 507 625 488 607 q 526 668 526 644 z "},"ç":{"ha":839,"x_min":-20,"x_max":848,"o":"m 848 109 q 786 26 833 56 q 685 0 743 0 l 277 0 q 81 39 160 0 q -20 189 -20 89 q -18 211 -20 199 q 108 401 -5 332 q 342 461 207 461 l 513 461 q 611 425 570 461 q 652 335 652 388 q 611 244 652 281 q 513 207 570 207 q 415 244 455 207 q 375 336 374 282 q 375 353 375 336 l 293 353 l 240 203 q 233 168 233 184 q 328 109 233 109 l 848 109 m 484 -132 q 446 -227 484 -191 q 314 -269 401 -269 l 79 -269 q 246 -161 102 -161 l 356 -161 q 372 -153 369 -155 q 378 -141 377 -150 q 368 -111 380 -122 q 335 -100 355 -99 q 260 -100 335 -100 l 283 -40 l 359 20 l 420 20 l 353 -30 q 484 -132 484 -30 z "},"é":{"ha":848,"x_min":-24,"x_max":852,"o":"m 852 109 q 787 26 838 56 q 684 0 742 0 l 306 0 q -24 199 -24 0 q 89 399 -24 326 q 319 461 186 461 l 418 461 q 569 435 504 461 q 660 328 656 399 q 590 207 663 255 l 366 207 l 439 353 l 296 353 l 240 189 q 235 163 235 175 q 323 109 235 109 l 852 109 m 613 753 l 404 543 l 303 543 l 427 753 l 613 753 z "},"è":{"ha":848,"x_min":-24,"x_max":852,"o":"m 852 109 q 787 26 838 56 q 684 0 742 0 l 306 0 q -24 199 -24 0 q 89 399 -24 326 q 319 461 186 461 l 418 461 q 569 435 504 461 q 660 328 656 399 q 590 207 663 255 l 366 207 l 439 353 l 296 353 l 240 189 q 235 163 235 175 q 323 109 235 109 l 852 109 m 470 545 l 393 545 l 229 754 l 412 754 l 470 545 z "},"ê":{"ha":848,"x_min":-24,"x_max":852,"o":"m 852 109 q 787 26 838 56 q 684 0 742 0 l 306 0 q -24 199 -24 0 q 89 399 -24 326 q 319 461 186 461 l 418 461 q 569 435 504 461 q 660 328 656 399 q 590 207 663 255 l 366 207 l 439 353 l 296 353 l 240 189 q 235 163 235 175 q 323 109 235 109 l 852 109 m 571 543 l 454 543 l 397 625 l 292 543 l 182 543 l 335 715 l 484 715 l 571 543 z "},"ë":{"ha":848,"x_min":-24,"x_max":852,"o":"m 852 109 q 787 26 838 56 q 684 0 742 0 l 306 0 q -24 199 -24 0 q 89 399 -24 326 q 319 461 186 461 l 418 461 q 569 435 504 461 q 660 328 656 399 q 590 207 663 255 l 366 207 l 439 353 l 296 353 l 240 189 q 235 163 235 175 q 323 109 235 109 l 852 109 m 625 633 q 595 569 625 594 q 526 545 566 545 q 457 571 488 545 q 427 635 427 597 q 457 699 427 673 q 526 725 488 725 q 595 700 566 725 q 625 633 625 673 m 346 633 q 316 569 346 594 q 247 545 286 545 q 178 571 208 545 q 149 635 149 597 q 178 699 149 673 q 247 725 208 725 q 315 700 287 725 q 346 633 346 673 z "},"í":{"ha":517,"x_min":-8,"x_max":517,"o":"m 517 109 q 444 20 499 49 q 357 0 404 0 l 89 0 q -8 81 -8 0 q 1 131 -8 104 l 119 461 l 366 461 l 240 109 l 517 109 m 488 754 l 279 545 l 178 545 l 301 754 l 488 754 z "},"ì":{"ha":517,"x_min":-8,"x_max":517,"o":"m 517 109 q 444 20 499 49 q 357 0 404 0 l 89 0 q -8 81 -8 0 q 1 131 -8 104 l 119 461 l 366 461 l 240 109 l 517 109 m 340 543 l 264 543 l 100 753 l 282 753 l 340 543 z "},"î":{"ha":517,"x_min":-8,"x_max":517,"o":"m 517 109 q 444 20 499 49 q 357 0 404 0 l 89 0 q -8 81 -8 0 q 1 131 -8 104 l 119 461 l 366 461 l 240 109 l 517 109 m 450 545 l 334 545 l 277 627 l 171 545 l 62 545 l 214 717 l 363 717 l 450 545 z "},"ï":{"ha":517,"x_min":-8,"x_max":517,"o":"m 517 109 q 444 20 499 49 q 357 0 404 0 l 89 0 q -8 81 -8 0 q 1 131 -8 104 l 119 461 l 366 461 l 240 109 l 517 109 m 514 633 q 485 569 514 594 q 416 545 455 545 q 347 571 377 545 q 317 635 317 597 q 347 699 317 673 q 416 725 377 725 q 484 700 455 725 q 514 633 514 673 m 235 633 q 205 569 235 594 q 136 545 176 545 q 68 571 98 545 q 38 635 38 597 q 68 699 38 673 q 136 725 98 725 q 205 700 176 725 q 235 633 235 673 z "},"ñ":{"ha":921,"x_min":-36,"x_max":929,"o":"m 929 109 q 851 20 911 49 q 760 0 808 0 l 489 0 q 396 61 396 0 q 406 109 396 81 l 457 254 l 224 57 q 89 0 142 0 l -36 0 l 126 461 l 371 461 l 294 244 l 501 414 q 684 479 585 482 q 750 409 750 477 q 739 353 750 384 l 652 109 l 929 109 m 714 725 l 672 614 q 546 545 613 545 q 443 587 494 545 q 338 629 391 629 q 210 564 271 629 l 260 671 q 385 738 311 738 q 501 692 438 738 q 592 654 553 654 q 714 725 636 654 z "},"ó":{"ha":807,"x_min":-31,"x_max":1154,"o":"m 1154 461 q 991 353 1127 353 l 567 353 q 604 298 589 338 q 615 229 618 258 q 515 52 606 116 q 292 -11 429 -10 q 45 52 132 -12 q -31 202 -31 109 q -28 239 -31 220 q 74 399 -10 341 q 313 461 163 461 l 1154 461 m 415 353 l 260 353 l 199 179 q 194 153 194 165 q 302 95 194 95 q 325 96 315 95 l 415 353 m 602 753 l 393 543 l 292 543 l 415 753 l 602 753 z "},"ò":{"ha":807,"x_min":-31,"x_max":1154,"o":"m 1154 461 q 991 353 1127 353 l 567 353 q 604 298 589 338 q 615 229 618 258 q 515 52 606 116 q 292 -11 429 -10 q 45 52 132 -12 q -31 202 -31 109 q -28 239 -31 220 q 74 399 -10 341 q 313 461 163 461 l 1154 461 m 415 353 l 260 353 l 199 179 q 194 153 194 165 q 302 95 194 95 q 325 96 315 95 l 415 353 m 457 543 l 380 543 l 216 753 l 399 753 l 457 543 z "},"ô":{"ha":807,"x_min":-31,"x_max":1154,"o":"m 1154 461 q 991 353 1127 353 l 567 353 q 604 298 589 338 q 615 229 618 258 q 515 52 606 116 q 292 -11 429 -10 q 45 52 132 -12 q -31 202 -31 109 q -28 239 -31 220 q 74 399 -10 341 q 313 461 163 461 l 1154 461 m 415 353 l 260 353 l 199 179 q 194 153 194 165 q 302 95 194 95 q 325 96 315 95 l 415 353 m 571 543 l 454 543 l 397 625 l 292 543 l 182 543 l 335 715 l 484 715 l 571 543 z "},"ö":{"ha":807,"x_min":-31,"x_max":1154,"o":"m 1154 461 q 991 353 1127 353 l 567 353 q 604 298 589 338 q 615 229 618 258 q 515 52 606 116 q 292 -11 429 -10 q 45 52 132 -12 q -31 202 -31 109 q -28 239 -31 220 q 74 399 -10 341 q 313 461 163 461 l 1154 461 m 415 353 l 260 353 l 199 179 q 194 153 194 165 q 302 95 194 95 q 325 96 315 95 l 415 353 m 631 632 q 601 568 631 593 q 532 543 572 543 q 464 569 494 543 q 433 633 433 595 q 464 698 433 672 q 532 724 494 724 q 601 699 572 724 q 631 632 631 671 m 352 632 q 322 568 352 593 q 253 543 292 543 q 184 569 214 543 q 155 633 155 595 q 184 698 155 672 q 253 724 214 724 q 321 699 293 724 q 352 632 352 671 z "},"õ":{"ha":807,"x_min":-31,"x_max":1154,"o":"m 1154 461 q 991 353 1127 353 l 567 353 q 604 298 589 338 q 615 229 618 258 q 515 52 606 116 q 292 -11 429 -10 q 45 52 132 -12 q -31 202 -31 109 q -28 239 -31 220 q 74 399 -10 341 q 313 461 163 461 l 1154 461 m 415 353 l 260 353 l 199 179 q 194 153 194 165 q 302 95 194 95 q 325 96 315 95 l 415 353 m 650 724 l 608 612 q 482 543 549 543 q 379 585 430 543 q 274 627 328 627 q 146 563 208 627 l 196 669 q 321 736 248 736 q 437 690 374 736 q 528 653 490 653 q 650 724 572 653 z "},"ú":{"ha":897,"x_min":-3,"x_max":900,"o":"m 900 109 q 838 23 886 52 q 757 0 800 0 l 473 0 q 374 64 374 0 q 231 0 321 0 l 111 0 q 26 28 56 0 q -3 98 -3 55 q 7 149 -3 123 l 121 461 l 367 461 l 240 109 l 378 109 l 504 461 l 747 461 l 624 109 l 900 109 m 650 753 l 441 543 l 340 543 l 464 753 l 650 753 z "},"ù":{"ha":897,"x_min":-3,"x_max":900,"o":"m 900 109 q 838 23 886 52 q 757 0 800 0 l 473 0 q 374 64 374 0 q 231 0 321 0 l 111 0 q 26 28 56 0 q -3 98 -3 55 q 7 149 -3 123 l 121 461 l 367 461 l 240 109 l 378 109 l 504 461 l 747 461 l 624 109 l 900 109 m 526 543 l 449 543 l 285 753 l 467 753 l 526 543 z "},"û":{"ha":897,"x_min":-3,"x_max":900,"o":"m 900 109 q 838 23 886 52 q 757 0 800 0 l 473 0 q 374 64 374 0 q 231 0 321 0 l 111 0 q 26 28 56 0 q -3 98 -3 55 q 7 149 -3 123 l 121 461 l 367 461 l 240 109 l 378 109 l 504 461 l 747 461 l 624 109 l 900 109 m 639 543 l 522 543 l 465 625 l 359 543 l 250 543 l 403 715 l 551 715 l 639 543 z "},"ü":{"ha":897,"x_min":-3,"x_max":900,"o":"m 900 109 q 838 23 886 52 q 757 0 800 0 l 473 0 q 374 64 374 0 q 231 0 321 0 l 111 0 q 26 28 56 0 q -3 98 -3 55 q 7 149 -3 123 l 121 461 l 367 461 l 240 109 l 378 109 l 504 461 l 747 461 l 624 109 l 900 109 m 688 633 q 658 569 688 594 q 589 545 629 545 q 520 571 551 545 q 490 635 490 597 q 520 699 490 673 q 589 725 551 725 q 658 700 629 725 q 688 633 688 673 m 409 633 q 379 569 409 594 q 310 545 349 545 q 241 571 271 545 q 212 635 212 597 q 241 699 212 673 q 310 725 271 725 q 378 700 350 725 q 409 633 409 673 z "},"†":{"ha":786,"x_min":129,"x_max":890,"o":"m 890 599 q 850 507 890 545 q 751 469 809 469 q 700 478 721 469 q 576 550 643 500 l 351 -244 l 298 -211 l 424 589 l 408 607 q 364 521 404 556 q 268 486 323 486 q 170 525 211 486 q 129 616 129 563 q 170 707 129 670 q 268 745 211 745 q 339 728 300 745 q 437 672 401 701 l 481 949 l 703 949 l 597 631 q 593 624 593 628 q 612 606 593 615 q 655 692 616 657 q 751 728 695 728 q 849 690 808 728 q 890 599 890 652 z "},"°":{"ha":694,"x_min":79,"x_max":476,"o":"m 476 840 q 418 699 476 757 q 278 642 361 642 q 137 699 195 642 q 79 840 79 757 q 137 981 79 924 q 278 1039 195 1039 q 418 981 361 1039 q 476 840 476 924 m 387 840 q 357 922 387 888 q 278 956 327 956 q 199 922 229 956 q 168 840 168 888 q 199 759 168 792 q 278 725 229 725 q 357 759 327 725 q 387 840 387 792 z "},"¢":{"ha":839,"x_min":78,"x_max":741,"o":"m 741 109 q 677 26 726 56 q 576 0 634 0 l 446 0 l 375 -212 l 268 -212 l 339 1 q 163 47 231 7 q 78 188 78 96 q 79 211 78 199 q 205 401 93 332 q 439 461 304 461 l 500 461 l 564 654 l 671 654 l 604 458 q 739 334 739 439 q 703 245 739 281 q 604 208 664 208 q 505 249 543 208 q 471 330 471 284 q 473 353 471 342 l 390 353 l 338 203 q 331 169 331 184 q 425 109 331 109 l 741 109 z "},"£":{"ha":1324,"x_min":0,"x_max":1504,"o":"m 1504 815 q 1451 701 1504 749 q 1324 653 1398 653 q 1196 701 1249 653 q 1143 815 1143 749 q 1144 826 1143 819 q 1145 835 1145 832 q 1123 834 1135 835 q 1111 833 1111 833 q 935 461 977 833 l 1139 461 q 1050 366 1128 390 q 904 353 1004 353 q 625 109 830 178 l 1221 109 q 1039 0 1192 0 l 0 0 q 144 163 56 163 q 273 142 189 163 q 401 121 357 121 q 538 200 483 121 q 608 353 572 249 l 432 353 l 492 461 l 647 461 q 720 667 670 530 q 1217 981 841 981 q 1270 980 1235 981 q 1324 979 1305 979 q 1448 933 1394 979 q 1504 815 1504 885 z "},"§":{"ha":1022,"x_min":20,"x_max":1112,"o":"m 1112 791 q 1060 677 1112 725 q 933 629 1007 629 q 806 677 859 629 q 753 791 753 725 q 755 819 753 803 l 728 819 q 625 722 626 819 q 712 506 625 674 q 800 268 800 338 q 768 168 800 218 q 710 109 741 125 l 1025 109 q 827 0 987 0 l 200 0 q 76 45 129 0 q 20 163 20 92 q 72 277 20 230 q 200 325 125 325 q 328 277 275 325 q 380 163 380 230 q 370 107 380 134 q 393 106 381 106 q 487 142 453 106 q 519 234 519 178 q 496 332 519 281 l 395 555 q 357 704 357 638 q 446 888 357 817 q 644 954 530 954 l 933 954 q 1060 907 1008 954 q 1112 791 1112 859 z "},"•":{"ha":472,"x_min":58,"x_max":411,"o":"m 411 471 q 359 356 411 404 q 235 309 308 309 q 110 356 161 309 q 58 471 58 404 q 110 586 58 538 q 235 633 161 633 q 359 586 308 633 q 411 471 411 538 z "},"¶":{"ha":880,"x_min":47,"x_max":868,"o":"m 868 1025 l 457 -146 l 301 -146 l 689 908 l 590 908 l 203 -146 l 47 -146 l 261 428 q 109 527 165 450 q 53 703 53 602 q 146 925 53 837 q 443 1025 252 1025 l 868 1025 z "},"ß":{"ha":949,"x_min":-54,"x_max":951,"o":"m 951 109 q 808 0 910 0 l 40 0 q -7 109 -7 46 q 43 224 -7 177 q 167 272 94 272 q 340 154 300 272 q 346 109 349 130 l 514 109 l 447 300 q 437 351 437 328 q 479 431 437 399 q 549 467 484 433 l 676 532 l 707 639 q 713 674 713 661 q 661 711 713 711 l 562 711 q 433 610 469 711 l 343 353 l -54 353 l -9 461 l 140 461 l 170 550 q 546 828 260 828 l 705 828 q 811 791 771 828 q 852 691 852 755 q 843 632 852 663 l 790 439 l 667 371 l 728 196 q 721 109 747 140 l 951 109 z "},"®":{"ha":621,"x_min":0,"x_max":616,"o":"m 616 551 q 526 350 616 433 q 309 267 436 267 q 90 350 180 267 q 0 550 0 433 q 90 752 0 668 q 309 836 180 836 q 526 753 436 836 q 616 551 616 669 m 557 550 q 484 710 557 644 q 310 777 412 777 q 135 710 208 777 q 62 549 62 643 q 135 389 62 455 q 310 322 208 322 q 485 389 412 322 q 557 550 557 455 m 490 596 q 414 515 480 535 l 467 411 l 330 411 l 289 497 l 269 497 l 239 411 l 114 411 l 215 696 l 371 696 q 492 616 492 696 q 490 596 492 606 m 378 596 q 381 612 381 604 q 354 643 381 643 l 323 643 l 289 547 q 328 549 328 546 q 378 596 359 549 z "},"©":{"ha":621,"x_min":0,"x_max":616,"o":"m 616 553 q 526 351 616 435 q 309 268 436 268 q 90 351 180 268 q 0 551 0 435 q 90 753 0 669 q 309 838 180 837 q 526 754 436 838 q 616 553 616 671 m 557 551 q 484 711 557 645 q 310 778 412 778 q 135 711 208 778 q 62 550 62 645 q 135 390 62 456 q 310 323 208 323 q 485 390 412 323 q 557 551 557 457 m 471 623 q 449 571 471 592 q 396 550 427 550 q 341 572 362 550 q 321 628 320 595 l 293 628 l 267 533 q 262 507 262 518 q 329 460 262 460 l 469 460 q 375 406 456 406 l 285 406 q 180 437 226 406 q 131 523 131 471 q 132 539 131 531 q 198 658 144 616 q 314 696 246 696 l 401 696 q 450 674 430 696 q 471 623 471 652 z "},"™":{"ha":965,"x_min":119,"x_max":865,"o":"m 865 472 q 807 439 853 439 l 736 439 q 705 457 705 439 q 711 478 705 465 l 751 561 l 637 449 q 600 437 626 437 q 578 455 578 437 q 585 478 578 465 l 644 602 l 504 450 q 476 439 494 439 l 432 439 l 536 661 l 421 661 l 345 500 q 257 441 317 441 l 119 441 q 167 489 143 492 l 258 475 l 350 661 l 228 661 q 178 644 197 661 q 163 611 163 629 q 172 591 163 597 q 228 643 179 643 q 269 626 252 643 q 286 586 286 610 q 269 545 286 562 q 225 528 252 528 q 160 550 187 528 q 126 611 126 569 q 168 692 126 663 q 260 718 205 718 l 591 718 q 616 700 616 718 q 611 679 616 692 l 555 557 l 650 653 q 715 685 682 685 q 736 664 736 685 q 730 642 736 654 l 677 533 l 766 618 q 823 643 793 643 q 842 621 842 643 q 835 596 842 610 l 777 472 l 865 472 z "},"´":{"ha":694,"x_min":374,"x_max":684,"o":"m 684 753 l 475 543 l 374 543 l 497 753 l 684 753 z "},"¨":{"ha":694,"x_min":110,"x_max":586,"o":"m 586 669 q 556 605 586 630 q 488 581 527 581 q 419 607 449 581 q 389 671 389 633 q 419 735 389 709 q 488 761 449 761 q 556 736 527 761 q 586 669 586 709 m 307 669 q 277 605 307 630 q 208 581 248 581 q 140 607 170 581 q 110 671 110 633 q 140 735 110 709 q 208 761 170 761 q 277 736 248 761 q 307 669 307 709 z "},"≠":{"ha":612,"x_min":69,"x_max":543,"o":"m 543 265 l 308 265 l 254 47 l 174 66 l 223 265 l 69 265 l 69 346 l 243 346 l 285 513 l 69 513 l 69 595 l 305 595 l 359 812 l 438 792 l 389 595 l 543 595 l 543 513 l 369 513 l 328 346 l 543 346 l 543 265 z "},"Æ":{"ha":1980,"x_min":-53,"x_max":2053,"o":"m 2053 778 q 1991 650 2053 701 q 1854 602 1933 602 q 1717 650 1776 602 q 1655 778 1655 701 q 1661 819 1655 791 q 1567 810 1590 818 q 1503 736 1518 793 q 1499 711 1499 724 q 1520 630 1499 684 q 1541 549 1541 577 q 1471 475 1541 513 q 1339 393 1369 420 q 1268 229 1268 328 q 1357 117 1268 140 q 1518 109 1392 109 l 1980 109 q 1919 26 1972 56 q 1815 0 1873 0 l 1162 0 q 1057 35 1105 0 q 1002 136 1002 74 q 1013 192 1002 163 l 1071 353 l 857 353 q 187 -60 515 -60 q 28 -24 93 -60 q -53 107 -53 20 q 8 252 -53 180 q 305 418 106 365 q 650 461 462 461 l 786 461 l 1185 954 l 1854 954 q 1991 905 1933 954 q 2053 778 2053 854 m 1219 787 l 950 461 l 1107 461 l 1219 787 m 690 353 q 414 319 534 353 q 239 161 239 269 q 259 111 239 131 q 310 92 279 92 q 520 186 393 92 q 690 353 631 269 z "},"Ø":{"ha":1183,"x_min":-5,"x_max":1171,"o":"m 1044 1035 l 422 -107 l 290 -107 l 913 1035 l 1044 1035 m 1171 606 q 973 169 1171 355 q 543 -11 782 -11 q 266 84 368 -11 q 164 345 164 179 q 204 528 164 430 q 304 696 242 621 l 603 696 q 476 522 526 628 q 425 314 425 414 q 459 175 425 232 q 576 107 500 107 q 807 272 704 107 q 899 555 899 420 q 836 723 899 663 q 664 783 774 783 l -5 783 l 98 954 l 722 954 q 1031 877 912 954 q 1171 606 1171 785 z "},"∞":{"ha":861,"x_min":24,"x_max":838,"o":"m 838 171 q 762 94 838 94 l 591 94 q 498 171 548 94 l 431 273 l 364 170 q 321 113 336 125 q 273 94 302 95 l 101 94 q 24 171 24 94 l 24 515 q 101 592 24 592 l 273 592 q 366 515 317 591 l 432 413 l 498 515 q 591 592 548 592 l 762 592 q 838 515 838 592 l 838 171 m 747 174 l 747 513 l 586 513 l 477 344 l 587 174 l 747 174 m 386 342 l 274 513 l 115 513 l 115 174 l 277 174 l 386 342 z "},"±":{"ha":568,"x_min":46,"x_max":524,"o":"m 521 441 l 325 441 l 325 269 l 244 269 l 244 441 l 47 441 l 47 518 l 244 518 l 244 697 l 325 697 l 325 518 l 521 518 l 521 441 m 524 129 l 46 129 l 46 212 l 524 212 l 524 129 z "},"≤":{"ha":473,"x_min":52,"x_max":396,"o":"m 396 205 l 392 205 l 52 439 l 52 488 l 396 725 l 396 631 l 144 465 l 396 299 l 396 205 m 396 98 l 52 98 l 52 179 l 396 179 l 396 98 z "},"≥":{"ha":473,"x_min":65,"x_max":410,"o":"m 410 439 l 65 205 l 65 299 l 316 465 l 65 631 l 65 725 l 69 725 l 410 488 l 410 439 m 409 98 l 65 98 l 65 179 l 409 179 l 409 98 z "},"¥":{"ha":1292,"x_min":22,"x_max":1247,"o":"m 1247 283 q 1168 178 1228 212 q 1074 153 1125 153 l 970 153 l 856 -178 l 611 -178 l 726 153 l 476 153 q 555 258 496 224 q 650 283 599 283 l 771 283 l 871 572 l 681 397 q 485 330 608 330 q 419 354 457 330 q 363 449 363 389 q 374 504 363 475 l 486 823 l 371 823 q 375 790 375 807 q 323 675 375 723 q 199 628 272 628 q 74 675 125 628 q 22 790 22 723 q 70 906 22 859 q 196 954 118 954 l 628 954 q 704 926 675 954 q 732 853 732 898 q 722 799 732 827 l 608 475 l 1023 904 q 1136 954 1076 954 l 1247 954 l 1015 283 l 1247 283 z "},"µ":{"ha":532,"x_min":74,"x_max":458,"o":"m 458 0 l 370 0 l 370 19 q 245 -1 323 -1 q 163 26 181 -1 l 163 -250 l 74 -250 l 74 660 l 163 660 l 163 172 q 256 77 163 77 q 369 88 321 77 l 369 660 l 458 660 l 458 0 z "},"∂":{"ha":589,"x_min":84,"x_max":505,"o":"m 505 583 l 505 75 q 484 21 505 42 q 430 0 463 0 l 159 0 q 105 21 126 0 q 84 75 84 42 l 84 510 q 105 564 84 543 q 159 585 126 585 l 401 585 l 180 1061 l 282 1061 l 505 583 m 410 83 l 410 503 l 178 503 l 178 83 l 410 83 z "},"∑":{"ha":496,"x_min":58,"x_max":440,"o":"m 440 0 l 58 0 l 58 73 l 317 540 l 58 977 l 58 1061 l 436 1061 l 436 978 l 151 978 l 393 580 l 393 499 l 152 83 l 440 83 l 440 0 z "},"∏":{"ha":545,"x_min":26,"x_max":518,"o":"m 518 978 l 418 978 l 418 0 l 326 0 l 326 978 l 216 978 l 216 0 l 124 0 l 124 978 l 26 978 l 26 1061 l 518 1061 l 518 978 z "},"π":{"ha":545,"x_min":26,"x_max":518,"o":"m 518 522 l 418 522 l 418 0 l 326 0 l 326 522 l 216 522 l 216 0 l 124 0 l 124 522 l 26 522 l 26 606 l 518 606 l 518 522 z "},"∫":{"ha":330,"x_min":-22,"x_max":323,"o":"m 323 982 l 196 982 l 196 -196 q 178 -247 196 -226 q 123 -271 158 -271 l -22 -272 l -22 -193 l 106 -193 l 107 985 q 183 1061 107 1061 l 323 1061 l 323 982 z "},"ª":{"ha":875,"x_min":88,"x_max":878,"o":"m 878 465 q 711 357 845 357 l 603 357 q 493 428 493 357 q 321 343 420 343 q 193 392 242 343 q 144 519 144 441 q 252 744 144 661 q 495 818 350 818 l 865 818 l 738 465 l 878 465 m 589 710 l 442 710 l 395 551 q 391 524 391 536 q 503 465 391 465 l 589 710 m 764 291 l 735 185 l 88 185 l 117 291 l 764 291 z "},"º":{"ha":807,"x_min":75,"x_max":799,"o":"m 798 595 q 696 418 785 482 q 473 355 610 357 q 227 418 313 355 q 151 568 151 475 q 155 606 151 587 q 256 766 172 708 q 493 828 345 828 q 710 777 629 828 q 799 620 799 722 q 798 595 799 608 m 596 720 l 440 720 l 379 546 q 374 520 374 532 q 484 462 374 462 q 506 463 496 462 l 596 720 m 751 291 l 722 185 l 75 185 l 104 291 l 751 291 z "},"Ω":{"ha":716,"x_min":40,"x_max":678,"o":"m 678 -1 l 415 -1 l 415 332 l 540 332 l 540 978 l 180 977 l 179 332 l 304 332 l 304 -1 l 40 -1 l 40 87 l 224 87 l 224 248 l 160 248 q 106 269 127 248 q 85 323 85 290 l 85 986 q 106 1040 85 1019 q 160 1061 127 1061 l 557 1061 q 612 1040 590 1061 q 634 986 634 1019 l 634 323 q 613 269 634 290 q 559 248 592 248 l 494 248 l 494 87 l 678 87 l 678 -1 z "},"æ":{"ha":1242,"x_min":-16,"x_max":1239,"o":"m 1239 109 q 1080 0 1208 0 l 452 0 q 343 71 341 0 q 161 -17 267 -17 q 33 33 82 -17 q -16 161 -16 83 q 92 386 -16 304 q 335 461 189 461 l 821 461 q 1050 323 1050 461 q 968 207 1050 242 l 751 207 l 825 353 l 684 353 l 625 193 q 618 161 618 176 q 713 109 618 109 l 1239 109 m 439 353 l 294 353 l 236 195 q 231 168 231 180 q 353 109 231 109 l 439 353 z "},"ø":{"ha":807,"x_min":-31,"x_max":1154,"o":"m 1154 461 q 991 353 1127 353 l 567 353 q 604 298 589 338 q 615 229 618 258 q 515 52 606 116 q 292 -11 429 -10 q 45 52 132 -12 q -31 202 -31 109 q -28 239 -31 220 q 74 399 -10 341 q 313 461 163 461 l 1154 461 m 415 353 l 260 353 l 199 179 q 194 153 194 165 q 302 95 194 95 q 325 96 315 95 l 415 353 m 572 553 l 118 -74 l 33 -74 l 482 553 l 572 553 z "},"¿":{"ha":774,"x_min":-7,"x_max":772,"o":"m -4 236 q 128 439 -3 361 q 363 528 204 485 l 419 654 l 661 654 l 614 526 q 533 455 595 476 q 431 429 481 442 q 248 233 248 368 q 300 131 248 155 q 418 117 333 115 q 411 163 411 142 q 464 277 411 229 q 591 325 517 325 q 720 277 667 325 q 772 163 772 229 q 715 45 772 92 q 591 0 663 0 l 339 0 q -4 236 -7 0 m 437 857 q 476 943 437 907 q 570 978 514 978 q 662 942 624 978 q 700 857 700 907 q 662 771 700 807 q 568 736 623 736 q 476 771 514 736 q 437 857 437 807 z "},"¡":{"ha":624,"x_min":-20,"x_max":572,"o":"m -20 0 l 319 654 l 479 654 l 317 0 l -20 0 m 310 857 q 348 943 310 907 q 441 978 387 978 q 534 942 496 978 q 572 857 572 907 q 534 771 572 807 q 440 736 495 736 q 348 771 386 736 q 310 857 310 807 z "},"¬":{"ha":639,"x_min":81,"x_max":558,"o":"m 558 225 l 474 225 l 474 423 l 81 423 l 81 507 l 558 507 l 558 225 z "},"√":{"ha":660,"x_min":12,"x_max":647,"o":"m 647 1061 l 349 -1 l 193 -1 l 12 367 l 184 367 l 258 174 l 484 1061 l 647 1061 z "},"ƒ":{"ha":996,"x_min":-184,"x_max":1187,"o":"m 1187 790 q 1136 675 1187 723 q 1011 628 1084 628 q 886 675 938 628 q 835 790 835 723 q 842 836 835 813 q 825 840 836 840 q 747 790 765 840 l 629 461 l 829 461 q 689 353 801 353 l 591 353 l 489 65 q 237 -174 430 -100 q 119 -197 185 -193 q -8 -197 114 -197 q -135 -150 -85 -197 q -184 -33 -184 -102 q -133 82 -184 35 q -8 129 -81 129 q 116 82 64 129 q 168 -33 168 35 q 161 -79 168 -56 q 256 101 183 -93 q 345 353 300 227 l 189 353 l 233 461 l 383 461 l 492 757 q 864 954 563 951 l 1011 956 q 1139 907 1088 956 q 1187 790 1187 859 z "},"≈":{"ha":701,"x_min":115,"x_max":586,"o":"m 586 545 q 530 487 586 487 q 460 500 496 487 l 204 598 l 204 491 l 115 491 l 115 633 q 171 691 115 691 q 241 677 205 691 l 497 580 l 497 687 l 586 687 l 586 545 m 586 277 q 530 219 586 219 q 460 233 496 219 l 204 330 l 204 223 l 115 223 l 115 365 q 171 423 115 423 q 241 409 205 423 l 497 312 l 497 419 l 586 419 l 586 277 z "},"Δ":{"ha":555,"x_min":31,"x_max":526,"o":"m 526 0 l 31 0 l 31 83 l 232 1064 l 325 1064 q 431 547 332 1025 q 526 80 526 81 l 526 0 m 432 90 l 277 895 l 122 90 l 432 90 z "},"«":{"ha":746,"x_min":60,"x_max":685,"o":"m 685 103 l 519 103 l 353 323 l 518 545 l 684 545 l 521 323 l 685 103 m 392 103 l 227 103 l 60 323 l 225 545 l 390 545 l 228 323 l 392 103 z "},"»":{"ha":746,"x_min":61,"x_max":686,"o":"m 686 323 l 519 103 l 354 103 l 518 323 l 355 545 l 521 545 l 686 323 m 393 323 l 227 103 l 61 103 l 225 323 l 62 545 l 228 545 l 393 323 z "},"…":{"ha":1329,"x_min":97,"x_max":1471,"o":"m 1471 97 q 1432 12 1471 47 q 1339 -24 1394 -24 q 1246 12 1284 -24 q 1208 97 1208 47 q 1247 183 1208 147 q 1340 218 1285 218 q 1433 183 1394 218 q 1471 97 1471 147 m 916 97 q 877 12 916 47 q 783 -24 838 -24 q 691 12 729 -24 q 653 97 653 47 q 691 183 653 147 q 785 218 730 218 q 877 183 839 218 q 916 97 916 147 m 359 97 q 321 12 359 47 q 228 -24 283 -24 q 135 12 174 -24 q 97 97 97 47 q 136 183 97 147 q 229 218 174 218 q 321 183 283 218 q 359 97 359 147 z "}," ":{"ha":265,"x_min":0,"x_max":0,"o":""},"À":{"ha":1531,"x_min":-49,"x_max":1881,"o":"m 1881 461 q 1715 353 1846 353 l 1312 353 l 1185 0 l 942 0 l 1069 353 l 861 353 q 193 -60 519 -60 q 33 -24 98 -60 q -49 107 -49 20 q 12 252 -49 181 q 310 419 111 365 q 654 461 466 461 l 786 461 l 1197 954 l 1524 954 l 1349 461 l 1881 461 m 1249 842 l 951 461 l 1103 461 l 1249 842 m 694 353 q 338 279 440 353 q 253 150 253 218 q 314 92 253 92 q 524 186 398 92 q 694 353 635 269 m 1419 1006 l 1343 1006 l 1179 1215 l 1361 1215 l 1419 1006 z "},"Ã":{"ha":1531,"x_min":-49,"x_max":1881,"o":"m 1881 461 q 1715 353 1846 353 l 1312 353 l 1185 0 l 942 0 l 1069 353 l 861 353 q 193 -60 519 -60 q 33 -24 98 -60 q -49 107 -49 20 q 12 252 -49 181 q 310 419 111 365 q 654 461 466 461 l 786 461 l 1197 954 l 1524 954 l 1349 461 l 1881 461 m 1249 842 l 951 461 l 1103 461 l 1249 842 m 694 353 q 338 279 440 353 q 253 150 253 218 q 314 92 253 92 q 524 186 398 92 q 694 353 635 269 m 1622 1192 l 1580 1080 q 1454 1011 1521 1011 q 1351 1053 1402 1011 q 1246 1095 1299 1095 q 1118 1031 1179 1095 l 1168 1137 q 1293 1204 1219 1204 q 1409 1158 1346 1204 q 1500 1121 1461 1121 q 1622 1192 1544 1121 z "},"Õ":{"ha":1231,"x_min":-5,"x_max":1171,"o":"m 1171 606 q 973 169 1171 355 q 543 -11 782 -11 q 266 84 368 -11 q 164 345 164 179 q 204 528 164 430 q 304 696 242 621 l 603 696 q 476 522 526 628 q 425 314 425 414 q 459 175 425 232 q 576 107 500 107 q 807 272 704 107 q 899 555 899 420 q 836 723 899 663 q 664 783 774 783 l -5 783 l 98 954 l 722 954 q 1031 877 912 954 q 1171 606 1171 785 m 977 1192 l 935 1080 q 808 1011 876 1011 q 705 1053 756 1011 q 600 1095 654 1095 q 472 1031 534 1095 l 522 1137 q 647 1204 574 1204 q 764 1158 701 1204 q 854 1121 816 1121 q 977 1192 899 1121 z "},"Œ":{"ha":1870,"x_min":-1,"x_max":1928,"o":"m 1928 764 q 1862 628 1928 683 q 1718 575 1801 575 q 1576 626 1634 575 q 1516 762 1516 679 q 1532 846 1516 815 l 1464 846 q 1399 812 1426 846 q 1373 742 1373 781 q 1394 651 1373 710 q 1415 559 1415 591 q 1337 484 1415 522 q 1190 401 1223 429 q 1111 227 1111 335 q 1203 121 1111 145 q 1361 109 1249 109 l 1870 109 q 1807 26 1861 56 q 1704 0 1762 0 l 1133 0 q 867 81 955 0 q 543 -11 726 -11 q 262 92 370 -11 q 159 341 159 190 q 178 464 159 401 q 304 696 214 586 l 603 696 q 443 435 492 596 q 425 314 425 374 q 464 168 425 224 q 576 107 505 107 q 785 250 690 107 q 875 539 875 389 q 820 711 875 648 q 636 783 758 783 l -1 783 l 143 954 l 803 954 q 1132 753 1053 954 q 1288 912 1158 858 q 1522 954 1391 954 l 1714 954 q 1864 905 1804 954 q 1928 764 1928 851 z "},"œ":{"ha":1236,"x_min":-31,"x_max":1236,"o":"m 1236 109 q 1158 20 1219 49 q 1067 0 1115 0 l 290 0 q 45 59 129 0 q -31 202 -31 112 q -28 239 -31 220 q 74 399 -10 341 q 313 461 163 461 l 817 461 q 960 437 901 461 q 1044 331 1044 404 q 965 207 1044 256 l 749 207 l 822 353 l 679 353 l 629 212 q 618 159 618 180 q 710 109 618 109 l 1236 109 m 429 353 l 273 353 l 212 179 q 208 158 208 168 q 309 108 208 108 q 345 110 328 108 l 429 353 z "},"–":{"ha":1050,"x_min":21,"x_max":911,"o":"m 911 461 l 851 289 l 21 289 l 81 461 l 911 461 z "},"—":{"ha":1480,"x_min":21,"x_max":1328,"o":"m 1328 461 l 1268 289 l 21 289 l 81 461 l 1328 461 z "},"“":{"ha":526,"x_min":26,"x_max":595,"o":"m 595 954 l 492 663 l 307 663 l 465 954 l 595 954 m 314 954 l 211 663 l 26 663 l 184 954 l 314 954 z "},"”":{"ha":526,"x_min":87,"x_max":656,"o":"m 656 954 l 497 663 l 368 663 l 471 954 l 656 954 m 375 954 l 216 663 l 87 663 l 191 954 l 375 954 z "},"‘":{"ha":329,"x_min":3,"x_max":304,"o":"m 304 954 l 201 663 l 3 663 l 189 954 l 304 954 z "},"’":{"ha":329,"x_min":14,"x_max":315,"o":"m 315 954 l 129 663 l 14 663 l 117 954 l 315 954 z "},"÷":{"ha":833,"x_min":123,"x_max":893,"o":"m 686 717 q 648 624 686 663 q 555 586 610 586 q 463 624 501 586 q 425 717 425 663 q 463 809 425 771 q 555 847 501 847 q 648 809 610 847 q 686 717 686 771 m 893 536 l 831 364 l 123 364 l 186 536 l 893 536 m 603 175 q 564 83 603 122 q 472 45 526 45 q 380 83 419 45 q 342 175 342 122 q 380 267 342 228 q 472 306 419 306 q 564 267 526 306 q 603 175 603 228 z "},"◊":{"ha":560,"x_min":20,"x_max":541,"o":"m 541 389 l 306 45 l 257 45 l 20 389 l 257 734 l 306 734 l 541 389 m 447 389 l 281 641 l 115 389 l 281 138 l 447 389 z "},"ÿ":{"ha":900,"x_min":-4,"x_max":903,"o":"m 903 109 q 753 0 863 0 l 587 0 q 463 -237 528 -160 q 237 -345 372 -345 q 106 -295 153 -345 q 66 -183 66 -252 q 90 -78 66 -129 q 151 0 113 -27 l 100 0 q 25 27 55 0 q -4 96 -4 55 q 3 135 -4 115 l 121 461 l 367 461 l 240 109 l 378 109 l 503 461 l 747 461 l 623 109 l 903 109 m 335 -18 q 252 -69 290 -18 q 214 -170 214 -119 q 253 -241 214 -214 l 335 -18 m 693 633 q 664 569 693 594 q 595 545 634 545 q 526 571 556 545 q 496 635 496 597 q 526 699 496 673 q 595 725 556 725 q 663 700 634 725 q 693 633 693 673 m 414 633 q 385 569 414 594 q 315 545 355 545 q 247 571 277 545 q 217 635 217 597 q 247 699 217 673 q 315 725 277 725 q 384 700 355 725 q 414 633 414 673 z "},"Ÿ":{"ha":1171,"x_min":7,"x_max":1247,"o":"m 1247 954 l 960 129 q 887 35 939 69 q 772 0 836 0 l 248 0 q 311 96 264 61 q 421 131 357 131 l 714 131 l 857 533 l 653 317 q 485 250 590 250 q 382 277 424 250 q 334 367 334 309 q 343 422 334 395 l 486 823 l 364 823 q 367 791 367 804 q 314 677 367 724 q 187 629 262 629 q 60 677 113 629 q 7 791 7 724 q 62 909 7 862 q 186 954 115 954 l 627 954 q 703 927 673 954 q 732 852 732 899 q 722 799 732 826 l 578 393 l 977 904 q 1027 939 992 924 q 1088 954 1061 954 l 1247 954 m 1091 1101 q 1062 1037 1091 1062 q 993 1013 1032 1013 q 924 1039 954 1013 q 894 1103 894 1065 q 924 1167 894 1141 q 993 1193 954 1193 q 1061 1168 1032 1193 q 1091 1101 1091 1141 m 812 1101 q 783 1037 812 1062 q 713 1013 753 1013 q 645 1039 675 1013 q 615 1103 615 1065 q 645 1167 615 1141 q 713 1193 675 1193 q 782 1168 753 1193 q 812 1101 812 1141 z "},"⁄":{"ha":538,"x_min":-408,"x_max":962,"o":"m 962 964 l -248 -38 l -408 -38 l 802 964 l 962 964 z "},"¤":{"ha":828,"x_min":96,"x_max":743,"o":"m 743 745 l 623 625 l 623 357 l 743 237 l 663 157 l 531 288 l 307 288 l 176 157 l 96 237 l 216 357 l 216 625 l 96 745 l 176 825 l 308 694 l 532 694 l 663 825 l 743 745 m 511 389 l 511 594 l 328 594 l 328 389 l 511 389 z "},"‹":{"ha":463,"x_min":65,"x_max":397,"o":"m 397 103 l 232 103 l 65 323 l 231 545 l 396 545 l 233 323 l 397 103 z "},"›":{"ha":463,"x_min":65,"x_max":397,"o":"m 397 323 l 231 103 l 65 103 l 229 323 l 66 545 l 232 545 l 397 323 z "},"":{"ha":1169,"x_min":-104,"x_max":1178,"o":"m 1128 728 q 1075 613 1128 661 q 949 566 1023 566 q 821 613 873 566 q 768 728 768 660 q 821 842 768 795 q 949 889 873 889 q 1075 842 1023 889 q 1128 728 1128 794 m 1178 109 q 1105 20 1160 49 q 1018 0 1065 0 l 750 0 q 653 82 653 0 q 663 131 653 104 l 742 353 l 397 353 q 454 150 460 295 q 271 -156 448 -22 q -33 -273 113 -277 q -83 -252 -61 -273 q -104 -201 -104 -231 q -100 -178 -104 -190 l 74 311 q 13 347 39 321 q -17 413 -17 378 q -3 461 -17 437 l 125 461 l 252 818 l 496 818 l 346 461 l 1026 461 l 903 109 l 1178 109 m 254 45 q 263 71 254 45 q 272 136 272 97 q 236 220 272 192 q 62 -171 180 90 q 178 -73 117 -142 q 254 45 237 -7 z "},"":{"ha":1175,"x_min":-104,"x_max":1196,"o":"m 1196 954 l 901 109 l 1177 109 q 1103 20 1159 49 q 1017 0 1063 0 l 749 0 q 652 82 652 0 q 661 131 652 104 l 739 353 l 397 353 q 454 150 460 295 q 271 -156 448 -22 q -33 -273 113 -277 q -83 -252 -61 -273 q -104 -201 -104 -231 q -100 -178 -104 -190 l 74 311 q 13 347 39 321 q -17 413 -17 378 q -3 461 -17 437 l 125 461 l 252 818 l 496 818 l 346 461 l 777 461 l 950 954 l 1196 954 m 254 45 q 263 71 254 45 q 272 136 272 97 q 236 220 272 192 q 62 -171 180 90 q 178 -73 117 -142 q 254 45 237 -7 z "},"‡":{"ha":786,"x_min":53,"x_max":890,"o":"m 890 599 q 850 507 890 545 q 751 469 809 469 q 700 478 721 469 q 576 550 643 500 l 489 239 q 536 214 509 228 q 581 300 541 264 q 675 335 621 335 q 774 297 733 335 q 815 207 815 260 q 774 115 815 153 q 675 77 733 77 q 624 86 648 77 q 467 160 558 113 l 351 -244 l 298 -211 l 364 203 l 332 215 q 289 129 329 164 q 193 94 248 94 q 94 132 134 94 q 53 224 53 170 q 94 314 53 277 q 193 351 135 351 q 262 335 224 351 q 376 288 290 323 l 424 589 l 408 607 q 364 521 404 556 q 268 486 323 486 q 170 525 211 486 q 129 616 129 563 q 170 707 129 670 q 268 745 211 745 q 339 728 300 745 q 437 672 401 701 l 481 949 l 703 949 l 597 631 q 593 624 593 628 q 612 606 593 615 q 655 692 616 657 q 751 728 695 728 q 849 690 808 728 q 890 599 890 652 z "},"·":{"ha":335,"x_min":60,"x_max":281,"o":"m 281 319 q 248 241 281 274 q 171 208 216 208 q 92 241 125 208 q 60 319 60 273 q 92 397 60 364 q 170 429 125 429 q 248 397 215 429 q 281 319 281 364 z "},"‚":{"ha":329,"x_min":14,"x_max":315,"o":"m 315 200 l 129 -92 l 14 -92 l 117 200 l 315 200 z "},"„":{"ha":526,"x_min":87,"x_max":656,"o":"m 656 200 l 497 -92 l 368 -92 l 471 200 l 656 200 m 375 200 l 216 -92 l 87 -92 l 191 200 l 375 200 z "},"‰":{"ha":1112,"x_min":31,"x_max":1107,"o":"m 439 839 q 397 746 439 785 q 297 708 355 708 q 197 746 239 708 q 155 838 155 785 q 197 930 155 892 q 297 968 239 968 q 397 930 355 968 q 439 839 439 892 m 1107 111 q 1066 20 1107 58 q 966 -18 1024 -18 q 866 20 907 -18 q 824 111 824 58 q 866 203 824 165 q 966 241 907 241 q 1066 203 1024 241 q 1107 111 1107 165 m 791 954 l 189 0 l 31 0 l 625 954 l 791 954 m 705 111 q 664 20 705 58 q 564 -18 622 -18 q 464 20 505 -18 q 422 111 422 58 q 464 203 422 165 q 564 241 505 241 q 664 203 623 241 q 705 111 705 165 z "},"Â":{"ha":1531,"x_min":-49,"x_max":1881,"o":"m 1881 461 q 1715 353 1846 353 l 1312 353 l 1185 0 l 942 0 l 1069 353 l 861 353 q 193 -60 519 -60 q 33 -24 98 -60 q -49 107 -49 20 q 12 252 -49 181 q 310 419 111 365 q 654 461 466 461 l 786 461 l 1197 954 l 1524 954 l 1349 461 l 1881 461 m 1249 842 l 951 461 l 1103 461 l 1249 842 m 694 353 q 338 279 440 353 q 253 150 253 218 q 314 92 253 92 q 524 186 398 92 q 694 353 635 269 m 1567 1014 l 1450 1014 l 1393 1096 l 1287 1014 l 1178 1014 l 1331 1186 l 1479 1186 l 1567 1014 z "},"Ê":{"ha":1076,"x_min":31,"x_max":1114,"o":"m 1114 791 q 1061 677 1114 724 q 933 629 1008 629 q 807 677 859 629 q 754 791 754 724 q 764 846 754 823 l 684 846 q 618 813 645 846 q 591 742 591 781 q 613 651 591 710 q 635 559 635 591 q 556 484 635 522 q 410 401 443 429 q 330 227 330 335 q 422 121 330 145 q 581 109 468 109 l 1075 109 q 1013 26 1066 56 q 909 0 967 0 l 353 0 q 142 43 228 0 q 31 210 31 98 q 151 430 31 330 q 385 549 250 511 q 346 703 346 633 q 486 902 346 835 q 742 954 593 954 l 949 954 q 1065 906 1017 954 q 1114 791 1114 857 m 975 1014 l 859 1014 l 802 1096 l 696 1014 l 587 1014 l 739 1186 l 888 1186 l 975 1014 z "},"Á":{"ha":1531,"x_min":-49,"x_max":1881,"o":"m 1881 461 q 1715 353 1846 353 l 1312 353 l 1185 0 l 942 0 l 1069 353 l 861 353 q 193 -60 519 -60 q 33 -24 98 -60 q -49 107 -49 20 q 12 252 -49 181 q 310 419 111 365 q 654 461 466 461 l 786 461 l 1197 954 l 1524 954 l 1349 461 l 1881 461 m 1249 842 l 951 461 l 1103 461 l 1249 842 m 694 353 q 338 279 440 353 q 253 150 253 218 q 314 92 253 92 q 524 186 398 92 q 694 353 635 269 m 1602 1222 l 1393 1013 l 1292 1013 l 1415 1222 l 1602 1222 z "},"Ë":{"ha":1076,"x_min":31,"x_max":1114,"o":"m 1114 791 q 1061 677 1114 724 q 933 629 1008 629 q 807 677 859 629 q 754 791 754 724 q 764 846 754 823 l 684 846 q 618 813 645 846 q 591 742 591 781 q 613 651 591 710 q 635 559 635 591 q 556 484 635 522 q 410 401 443 429 q 330 227 330 335 q 422 121 330 145 q 581 109 468 109 l 1075 109 q 1013 26 1066 56 q 909 0 967 0 l 353 0 q 142 43 228 0 q 31 210 31 98 q 151 430 31 330 q 385 549 250 511 q 346 703 346 633 q 486 902 346 835 q 742 954 593 954 l 949 954 q 1065 906 1017 954 q 1114 791 1114 857 m 1048 1103 q 1019 1039 1048 1063 q 950 1014 989 1014 q 881 1040 911 1014 q 851 1104 851 1066 q 881 1168 851 1143 q 950 1194 911 1194 q 1019 1169 989 1194 q 1048 1103 1048 1142 m 770 1103 q 740 1039 770 1063 q 671 1014 710 1014 q 602 1040 632 1014 q 572 1104 572 1066 q 602 1168 572 1143 q 671 1194 632 1194 q 739 1169 711 1194 q 770 1103 770 1142 z "},"È":{"ha":1076,"x_min":31,"x_max":1114,"o":"m 1114 791 q 1061 677 1114 724 q 933 629 1008 629 q 807 677 859 629 q 754 791 754 724 q 764 846 754 823 l 684 846 q 618 813 645 846 q 591 742 591 781 q 613 651 591 710 q 635 559 635 591 q 556 484 635 522 q 410 401 443 429 q 330 227 330 335 q 422 121 330 145 q 581 109 468 109 l 1075 109 q 1013 26 1066 56 q 909 0 967 0 l 353 0 q 142 43 228 0 q 31 210 31 98 q 151 430 31 330 q 385 549 250 511 q 346 703 346 633 q 486 902 346 835 q 742 954 593 954 l 949 954 q 1065 906 1017 954 q 1114 791 1114 857 m 892 1013 l 815 1013 l 651 1222 l 833 1222 l 892 1013 z "},"Í":{"ha":999,"x_min":-1,"x_max":1074,"o":"m 1051 954 l 786 201 q 505 0 715 0 l 31 0 q 83 108 60 76 q 175 164 122 164 q 192 163 183 164 l 509 113 l 746 783 l 354 783 q 198 732 267 783 q 122 593 122 677 q 161 526 122 534 q 228 627 174 589 q 343 664 278 664 q 465 621 414 664 q 521 501 521 574 q 454 374 521 420 q 313 335 397 335 q 95 396 182 335 q -1 585 -1 465 q 141 865 -1 764 q 454 954 267 954 l 1051 954 m 1074 1223 l 865 1014 l 764 1014 l 887 1223 l 1074 1223 z "},"Î":{"ha":999,"x_min":-1,"x_max":1067,"o":"m 1051 954 l 786 201 q 505 0 715 0 l 31 0 q 83 108 60 76 q 175 164 122 164 q 192 163 183 164 l 509 113 l 746 783 l 354 783 q 198 732 267 783 q 122 593 122 677 q 161 526 122 534 q 228 627 174 589 q 343 664 278 664 q 465 621 414 664 q 521 501 521 574 q 454 374 521 420 q 313 335 397 335 q 95 396 182 335 q -1 585 -1 465 q 141 865 -1 764 q 454 954 267 954 l 1051 954 m 1067 1014 l 950 1014 l 893 1096 l 787 1014 l 678 1014 l 831 1186 l 979 1186 l 1067 1014 z "},"Ï":{"ha":999,"x_min":-1,"x_max":1109,"o":"m 1051 954 l 786 201 q 505 0 715 0 l 31 0 q 83 108 60 76 q 175 164 122 164 q 192 163 183 164 l 509 113 l 746 783 l 354 783 q 198 732 267 783 q 122 593 122 677 q 161 526 122 534 q 228 627 174 589 q 343 664 278 664 q 465 621 414 664 q 521 501 521 574 q 454 374 521 420 q 313 335 397 335 q 95 396 182 335 q -1 585 -1 465 q 141 865 -1 764 q 454 954 267 954 l 1051 954 m 1109 1101 q 1080 1037 1109 1062 q 1011 1013 1050 1013 q 942 1039 972 1013 q 912 1103 912 1065 q 942 1167 912 1141 q 1011 1193 972 1193 q 1080 1168 1050 1193 q 1109 1101 1109 1141 m 831 1101 q 801 1037 831 1062 q 732 1013 771 1013 q 663 1039 693 1013 q 633 1103 633 1065 q 663 1167 633 1141 q 732 1193 693 1193 q 800 1168 772 1193 q 831 1101 831 1141 z "},"Ì":{"ha":999,"x_min":-1,"x_max":1051,"o":"m 1051 954 l 786 201 q 505 0 715 0 l 31 0 q 83 108 60 76 q 175 164 122 164 q 192 163 183 164 l 509 113 l 746 783 l 354 783 q 198 732 267 783 q 122 593 122 677 q 161 526 122 534 q 228 627 174 589 q 343 664 278 664 q 465 621 414 664 q 521 501 521 574 q 454 374 521 420 q 313 335 397 335 q 95 396 182 335 q -1 585 -1 465 q 141 865 -1 764 q 454 954 267 954 l 1051 954 m 974 1013 l 897 1013 l 733 1222 l 916 1222 l 974 1013 z "},"Ó":{"ha":1231,"x_min":-5,"x_max":1171,"o":"m 1171 606 q 973 169 1171 355 q 543 -11 782 -11 q 266 84 368 -11 q 164 345 164 179 q 204 528 164 430 q 304 696 242 621 l 603 696 q 476 522 526 628 q 425 314 425 414 q 459 175 425 232 q 576 107 500 107 q 807 272 704 107 q 899 555 899 420 q 836 723 899 663 q 664 783 774 783 l -5 783 l 98 954 l 722 954 q 1031 877 912 954 q 1171 606 1171 785 m 848 1223 l 639 1014 l 538 1014 l 661 1223 l 848 1223 z "},"Ô":{"ha":1231,"x_min":-5,"x_max":1171,"o":"m 1171 606 q 973 169 1171 355 q 543 -11 782 -11 q 266 84 368 -11 q 164 345 164 179 q 204 528 164 430 q 304 696 242 621 l 603 696 q 476 522 526 628 q 425 314 425 414 q 459 175 425 232 q 576 107 500 107 q 807 272 704 107 q 899 555 899 420 q 836 723 899 663 q 664 783 774 783 l -5 783 l 98 954 l 722 954 q 1031 877 912 954 q 1171 606 1171 785 m 911 1013 l 794 1013 l 737 1095 l 631 1013 l 522 1013 l 675 1185 l 823 1185 l 911 1013 z "},"Ò":{"ha":1231,"x_min":-5,"x_max":1171,"o":"m 1171 606 q 973 169 1171 355 q 543 -11 782 -11 q 266 84 368 -11 q 164 345 164 179 q 204 528 164 430 q 304 696 242 621 l 603 696 q 476 522 526 628 q 425 314 425 414 q 459 175 425 232 q 576 107 500 107 q 807 272 704 107 q 899 555 899 420 q 836 723 899 663 q 664 783 774 783 l -5 783 l 98 954 l 722 954 q 1031 877 912 954 q 1171 606 1171 785 m 759 1008 l 682 1008 l 518 1218 l 701 1218 l 759 1008 z "},"Ú":{"ha":1108,"x_min":-22,"x_max":1129,"o":"m 1129 804 q 1093 604 1129 726 q 1021 412 1062 499 q 807 92 911 182 q 446 -24 673 -24 q 253 27 326 -24 q 168 200 168 86 q 187 307 168 252 l 357 783 l -22 783 l 81 954 l 663 954 l 440 319 q 422 222 422 268 q 456 142 422 171 q 541 114 488 114 q 864 421 726 114 q 933 629 918 541 q 794 677 853 629 q 730 806 730 728 q 793 932 730 881 q 929 982 852 982 q 1068 935 1011 982 q 1129 804 1129 884 m 938 1223 l 729 1014 l 628 1014 l 751 1223 l 938 1223 z "},"Û":{"ha":1108,"x_min":-22,"x_max":1129,"o":"m 1129 804 q 1093 604 1129 726 q 1021 412 1062 499 q 807 92 911 182 q 446 -24 673 -24 q 253 27 326 -24 q 168 200 168 86 q 187 307 168 252 l 357 783 l -22 783 l 81 954 l 663 954 l 440 319 q 422 222 422 268 q 456 142 422 171 q 541 114 488 114 q 864 421 726 114 q 933 629 918 541 q 794 677 853 629 q 730 806 730 728 q 793 932 730 881 q 929 982 852 982 q 1068 935 1011 982 q 1129 804 1129 884 m 905 1013 l 789 1013 l 732 1095 l 626 1013 l 517 1013 l 669 1185 l 818 1185 l 905 1013 z "},"Ù":{"ha":1108,"x_min":-22,"x_max":1129,"o":"m 1129 804 q 1093 604 1129 726 q 1021 412 1062 499 q 807 92 911 182 q 446 -24 673 -24 q 253 27 326 -24 q 168 200 168 86 q 187 307 168 252 l 357 783 l -22 783 l 81 954 l 663 954 l 440 319 q 422 222 422 268 q 456 142 422 171 q 541 114 488 114 q 864 421 726 114 q 933 629 918 541 q 794 677 853 629 q 730 806 730 728 q 793 932 730 881 q 929 982 852 982 q 1068 935 1011 982 q 1129 804 1129 884 m 791 1006 l 714 1006 l 550 1215 l 732 1215 l 791 1006 z "},"ı":{"ha":517,"x_min":-8,"x_max":517,"o":"m 517 109 q 444 20 499 49 q 357 0 404 0 l 89 0 q -8 81 -8 0 q 1 131 -8 104 l 119 461 l 366 461 l 240 109 l 517 109 z "},"ˆ":{"ha":694,"x_min":335,"x_max":724,"o":"m 724 549 l 607 549 l 550 631 l 444 549 l 335 549 l 488 721 l 636 721 l 724 549 z "},"˜":{"ha":694,"x_min":326,"x_max":831,"o":"m 831 700 l 789 589 q 663 519 730 519 q 559 562 610 519 q 454 604 508 604 q 326 539 388 604 l 376 646 q 501 713 428 713 q 618 667 555 713 q 709 629 670 629 q 831 700 753 629 z "},"¯":{"ha":694,"x_min":326,"x_max":786,"o":"m 786 693 l 733 562 l 326 562 l 379 693 l 786 693 z "},"˘":{"ha":694,"x_min":434,"x_max":800,"o":"m 800 699 q 728 576 789 625 q 587 526 668 526 q 476 565 517 526 q 434 665 434 604 q 437 699 434 682 l 547 699 q 544 675 544 686 q 611 618 544 618 q 704 699 694 618 l 800 699 z "},"˙":{"ha":694,"x_min":533,"x_max":728,"o":"m 728 639 q 700 570 728 598 q 631 542 671 542 q 562 570 590 542 q 533 639 533 598 q 562 708 533 680 q 631 736 590 736 q 700 708 671 736 q 728 639 728 680 z "},"˚":{"ha":694,"x_min":505,"x_max":755,"o":"m 755 668 q 719 581 755 617 q 631 545 682 545 q 542 581 579 545 q 505 668 505 617 q 542 756 505 720 q 631 793 579 793 q 719 756 683 793 q 755 668 755 720 m 692 668 q 674 711 692 693 q 632 729 656 728 q 589 711 607 730 q 571 668 572 693 q 588 627 570 645 q 629 608 605 610 q 673 625 654 607 q 692 668 692 644 z "},"¸":{"ha":694,"x_min":-113,"x_max":292,"o":"m 292 -140 q 254 -236 292 -200 q 122 -278 209 -278 l -113 -278 q 54 -170 -90 -170 l 164 -170 q 180 -162 177 -164 q 186 -150 185 -159 q 176 -119 188 -131 q 143 -109 163 -108 q 68 -109 143 -109 l 92 -49 l 167 11 l 228 11 l 161 -39 q 292 -140 292 -39 z "},"˝":{"ha":694,"x_min":301,"x_max":860,"o":"m 860 762 l 657 549 l 528 549 l 675 762 l 860 762 m 633 762 l 431 549 l 301 549 l 449 762 l 633 762 z "},"˛":{"ha":694,"x_min":37,"x_max":467,"o":"m 467 -170 q 300 -278 444 -278 l 174 -278 q 83 -253 122 -278 q 37 -175 37 -224 q 40 -147 37 -161 q 129 -1 54 -91 l 265 -1 q 199 -59 229 -20 q 169 -127 169 -97 q 232 -170 169 -170 l 467 -170 z "},"ˇ":{"ha":694,"x_min":336,"x_max":725,"o":"m 725 721 l 572 549 l 424 549 l 336 721 l 453 721 l 510 639 l 615 721 l 725 721 z "},"Ł":{"ha":1430,"x_min":3,"x_max":1489,"o":"m 1489 804 q 1432 687 1489 734 q 1308 642 1379 642 q 1176 694 1229 642 q 1129 825 1123 746 q 1064 808 1107 828 q 946 486 968 765 q 625 109 924 211 l 1429 109 q 1247 0 1400 0 l 3 0 q 143 164 60 164 q 273 134 180 164 q 406 104 365 104 q 596 317 522 104 l 704 629 q 1292 970 822 970 q 1427 928 1371 970 q 1489 804 1489 881 m 1162 579 q 1087 476 1135 510 q 958 427 1044 446 q 475 319 956 425 l 513 437 l 1162 579 z "},"ł":{"ha":519,"x_min":-26,"x_max":589,"o":"m 525 109 q 447 20 508 49 q 355 0 404 0 l 94 0 q -6 68 -6 0 q 1 109 -6 86 l 253 818 l 493 818 l 240 109 l 525 109 m 589 564 l 561 453 l -26 392 l -3 503 l 589 564 z "},"Š":{"ha":1337,"x_min":46,"x_max":1524,"o":"m 1524 790 q 1471 675 1524 723 q 1343 628 1417 628 q 1215 675 1268 628 q 1162 790 1162 723 q 1168 831 1162 806 q 1129 833 1137 833 q 1026 747 1026 833 q 1087 550 1026 703 q 1147 310 1147 397 q 942 31 1147 124 q 583 -37 789 -37 q 250 15 395 -37 q 46 240 46 88 q 422 461 46 461 l 681 461 l 730 353 l 529 353 q 397 326 453 353 q 323 224 323 292 q 425 104 323 147 q 591 71 503 71 q 779 120 704 71 q 867 283 867 177 q 811 494 867 357 q 755 707 755 631 q 1177 954 755 954 l 1344 954 q 1468 907 1413 954 q 1524 790 1524 858 m 1375 1185 l 1222 1013 l 1074 1013 l 986 1185 l 1103 1185 l 1160 1103 l 1265 1185 l 1375 1185 z "},"š":{"ha":818,"x_min":-4,"x_max":819,"o":"m 819 109 q 767 32 817 63 q 660 0 718 0 l 144 0 q -4 91 -4 0 q -3 109 -4 99 q 41 172 3 149 q 115 191 73 191 q 314 110 189 189 q 350 201 350 155 q 321 306 350 224 l 244 236 l 109 236 l 289 403 q 272 437 277 424 q 262 494 263 463 l 429 672 q 542 570 542 653 q 513 479 542 521 q 564 347 538 413 q 595 208 595 261 q 549 109 595 150 l 819 109 m 673 897 l 521 725 l 372 725 l 285 897 l 401 897 l 458 815 l 564 897 l 673 897 z "},"Ž":{"ha":1083,"x_min":-22,"x_max":1322,"o":"m 1322 461 q 1196 353 1290 353 l 778 353 q 779 323 779 343 q 579 -33 779 126 q 187 -183 391 -183 q 35 -129 92 -183 q -17 17 -22 -75 q 153 323 -5 199 q 478 456 292 433 q 363 587 442 526 l 737 783 l 228 783 l 330 954 l 1036 954 q 1017 829 1037 875 q 928 741 992 775 l 654 593 q 753 461 727 536 l 1322 461 m 536 329 q 525 353 534 339 q 392 298 466 346 q 282 201 322 253 q 178 -17 178 67 q 231 -77 178 -77 q 433 48 328 -77 q 538 295 538 172 q 536 329 538 313 m 933 1186 l 781 1014 l 632 1014 l 545 1186 l 661 1186 l 718 1104 l 823 1186 l 933 1186 z "},"ž":{"ha":718,"x_min":-8,"x_max":720,"o":"m 720 109 q 562 0 688 0 l 119 0 q -8 66 -8 0 q 26 146 -8 110 l 228 353 l -3 353 l 35 461 l 608 461 l 286 109 l 720 109 m 604 713 l 452 541 l 303 541 l 216 713 l 332 713 l 389 631 l 494 713 l 604 713 z "},"¦":{"ha":248,"x_min":82,"x_max":170,"o":"m 170 551 l 82 551 l 82 1023 l 170 1023 l 170 551 m 170 -141 l 82 -141 l 82 331 l 170 331 l 170 -141 z "},"Ð":{"ha":1117,"x_min":5,"x_max":1183,"o":"m 673 461 l 631 353 l 75 353 l 116 461 l 673 461 m 1183 637 q 1097 375 1183 513 q 766 92 983 193 q 336 0 566 0 l 113 0 l 358 696 l 603 696 l 395 109 q 660 191 528 109 q 851 393 791 273 q 905 571 905 500 q 840 739 905 688 q 661 783 782 783 l 5 783 l 110 954 l 766 954 q 1050 882 937 954 q 1183 637 1183 798 z "},"ð":{"ha":856,"x_min":8,"x_max":935,"o":"m 935 726 l 922 625 l 762 607 l 610 168 q 368 0 551 0 l 160 0 q 47 58 91 0 q 8 182 8 110 q 17 243 8 212 q 144 410 45 351 q 351 461 232 461 l 465 461 l 507 579 l 364 564 l 376 665 l 542 684 l 590 819 l 838 819 l 798 711 l 935 726 m 428 353 l 311 353 q 275 258 293 306 q 249 155 249 186 q 315 109 249 109 l 342 109 l 428 353 z "},"Ý":{"ha":1171,"x_min":7,"x_max":1247,"o":"m 1247 954 l 960 129 q 887 35 939 69 q 772 0 836 0 l 248 0 q 311 96 264 61 q 421 131 357 131 l 714 131 l 857 533 l 653 317 q 485 250 590 250 q 382 277 424 250 q 334 367 334 309 q 343 422 334 395 l 486 823 l 364 823 q 367 791 367 804 q 314 677 367 724 q 187 629 262 629 q 60 677 113 629 q 7 791 7 724 q 62 909 7 862 q 186 954 115 954 l 627 954 q 703 927 673 954 q 732 852 732 899 q 722 799 732 826 l 578 393 l 977 904 q 1027 939 992 924 q 1088 954 1061 954 l 1247 954 m 1133 1222 l 924 1013 l 823 1013 l 946 1222 l 1133 1222 z "},"ý":{"ha":900,"x_min":-4,"x_max":903,"o":"m 903 109 q 753 0 863 0 l 587 0 q 463 -237 528 -160 q 237 -345 372 -345 q 106 -295 153 -345 q 66 -183 66 -252 q 90 -78 66 -129 q 151 0 113 -27 l 100 0 q 25 27 55 0 q -4 96 -4 55 q 3 135 -4 115 l 121 461 l 367 461 l 240 109 l 378 109 l 503 461 l 747 461 l 623 109 l 903 109 m 335 -18 q 252 -69 290 -18 q 214 -170 214 -119 q 253 -241 214 -214 l 335 -18 m 652 751 l 443 542 l 342 542 l 465 751 l 652 751 z "},"Þ":{"ha":1112,"x_min":18,"x_max":1222,"o":"m 1222 715 q 951 386 1222 517 q 507 243 818 321 l 422 0 l 175 0 l 450 783 l 18 783 l 142 954 l 510 954 l 566 1111 l 811 1111 l 757 954 q 1056 928 970 954 q 1222 715 1222 878 m 946 642 q 760 783 946 783 l 696 783 l 564 403 q 794 481 700 435 q 946 642 946 553 z "},"þ":{"ha":889,"x_min":-132,"x_max":888,"o":"m 888 109 q 833 26 882 56 q 730 0 789 0 l 361 0 q 275 86 277 0 q 338 111 307 99 q 406 161 383 132 q 437 260 437 199 q 403 326 437 297 q 326 353 368 354 l 114 -261 l -132 -261 l 244 814 l 490 814 l 363 461 q 565 447 515 461 q 681 292 686 414 q 633 182 678 237 q 525 109 586 125 l 888 109 z "},"­":{"ha":833,"x_min":6,"x_max":834,"o":"m 834 540 l 769 361 l 6 361 l 71 540 l 834 540 z "},"×":{"ha":833,"x_min":53,"x_max":791,"o":"m 791 757 l 528 440 l 675 95 l 486 95 l 403 290 l 241 95 l 53 95 l 338 440 l 203 757 l 393 757 l 463 591 l 600 757 l 791 757 z "},"¹":{"ha":496,"x_min":63,"x_max":471,"o":"m 460 829 l 278 345 l 63 345 l 235 814 l 86 814 l 162 954 l 383 954 q 471 878 471 954 q 460 829 471 855 z "},"²":{"ha":757,"x_min":74,"x_max":725,"o":"m 725 814 q 606 604 725 694 q 390 503 518 539 l 664 503 l 612 352 l 74 352 l 110 476 q 343 600 220 514 q 497 792 497 708 q 431 879 497 879 q 416 878 423 879 q 418 859 418 866 q 371 781 418 811 q 281 755 330 755 q 191 781 231 755 q 144 859 144 812 q 250 959 144 928 q 415 979 319 979 q 725 814 725 979 z "},"³":{"ha":737,"x_min":69,"x_max":703,"o":"m 703 954 l 557 735 q 646 669 608 712 q 689 570 689 620 q 569 378 689 442 q 289 323 465 323 q 153 343 212 323 q 69 436 69 373 q 115 514 69 484 q 205 541 155 541 q 296 514 256 541 q 343 436 343 484 q 338 410 343 424 q 428 444 394 413 q 465 530 465 476 q 401 634 465 591 q 281 676 347 671 l 385 812 l 157 812 l 207 954 l 703 954 z "},"½":{"ha":1513,"x_min":-88,"x_max":1448,"o":"m 460 829 l 278 345 l 63 345 l 235 814 l 86 814 l 162 954 l 383 954 q 471 878 471 954 q 460 829 471 855 m 1281 964 l 71 -38 l -88 -38 l 1122 964 l 1281 964 m 1448 463 q 1329 252 1448 342 q 1113 151 1241 187 l 1387 151 l 1335 0 l 797 0 l 833 124 q 1066 248 943 162 q 1220 440 1220 356 q 1154 527 1220 527 q 1139 526 1146 527 q 1141 507 1141 514 q 1094 429 1141 459 q 1004 403 1053 403 q 913 429 954 403 q 867 507 867 460 q 972 607 867 576 q 1138 627 1042 627 q 1448 463 1448 627 z "},"¼":{"ha":1569,"x_min":-56,"x_max":1555,"o":"m 460 829 l 278 345 l 63 345 l 235 814 l 86 814 l 162 954 l 383 954 q 471 878 471 954 q 460 829 471 855 m 1313 964 l 103 -38 l -56 -38 l 1154 964 l 1313 964 m 1555 321 l 1499 171 l 1366 171 l 1306 0 l 1103 0 l 1165 171 l 909 171 q 829 221 829 171 q 847 262 829 245 l 1006 416 q 939 450 966 424 q 909 516 909 477 q 952 594 909 566 q 1042 618 989 618 q 1139 591 1098 618 q 1185 507 1185 561 q 1146 427 1185 464 l 1034 321 l 1212 321 l 1320 610 l 1518 610 l 1417 321 l 1555 321 z "},"¾":{"ha":1864,"x_min":69,"x_max":1810,"o":"m 1552 964 l 342 -38 l 183 -38 l 1393 964 l 1552 964 m 1810 321 l 1754 171 l 1621 171 l 1561 0 l 1358 0 l 1420 171 l 1164 171 q 1084 221 1084 171 q 1102 262 1084 245 l 1261 416 q 1194 450 1221 424 q 1164 516 1164 477 q 1207 594 1164 566 q 1297 618 1244 618 q 1394 591 1353 618 q 1440 507 1440 561 q 1401 427 1440 464 l 1289 321 l 1467 321 l 1575 610 l 1773 610 l 1672 321 l 1810 321 m 703 954 l 557 735 q 646 669 608 712 q 689 570 689 620 q 569 378 689 442 q 289 323 465 323 q 153 343 212 323 q 69 436 69 373 q 115 514 69 484 q 205 541 155 541 q 296 514 256 541 q 343 436 343 484 q 338 410 343 424 q 428 444 394 413 q 465 530 465 476 q 401 634 465 591 q 281 676 347 671 l 385 812 l 157 812 l 207 954 l 703 954 z "},"€":{"ha":1048,"x_min":-46,"x_max":1053,"o":"m 688 372 l 607 224 l 459 224 q 746 108 543 108 l 928 109 q 857 17 916 42 q 737 -1 816 -1 l 679 -1 q 151 224 248 -1 l -46 224 l 35 372 l 123 372 q 130 447 123 409 l 20 447 l 100 596 l 184 596 l 191 608 q 441 861 277 766 q 786 954 604 954 l 884 954 q 1001 904 949 954 q 1053 789 1053 854 q 998 670 1053 718 q 871 623 943 623 q 744 669 798 623 q 688 789 688 718 q 693 829 688 811 q 552 751 627 829 q 455 596 482 679 l 755 596 l 675 447 l 416 447 q 410 394 410 428 q 411 372 410 383 l 688 372 z "}}}
